<svg xmlns="http://www.w3.org/2000/svg" xmlns:xlink="http://www.w3.org/1999/xlink" width="94.083" height="94.074" viewBox="0 0 94.083 94.074">
  <defs>
    <filter id="Caminho_466" x="0" y="0" width="94.083" height="94.074" filterUnits="userSpaceOnUse">
      <feOffset dy="3" input="SourceAlpha"/>
      <feGaussianBlur stdDeviation="3" result="blur"/>
      <feFlood flood-opacity="0.161"/>
      <feComposite operator="in" in2="blur"/>
      <feComposite in="SourceGraphic"/>
    </filter>
    <clipPath id="clip-path">
      <rect id="Retângulo_519" data-name="Retângulo 519" width="35.252" height="43.799" fill="#fff"/>
    </clipPath>
  </defs>
  <g id="Grupo_1823" data-name="Grupo 1823" transform="translate(-1574.041 -67.113)">
    <g id="Grupo_1009" data-name="Grupo 1009" transform="translate(-131.959 -824.887)">
      <g id="Grupo_1005" data-name="Grupo 1005" transform="translate(1624)">
        <g transform="matrix(1, 0, 0, 1, 82, 892)" filter="url(#Caminho_466)">
          <path id="Caminho_466-2" data-name="Caminho 466" d="M43.384,10.319c-2.19.052-3.8.129-6.743.311-1.362.081-2.85.2-3.9.306-.263.029-.813.081-1.219.12-1.707.167-4.241.487-5.307.669-.225.038-.555.091-.741.12s-.507.081-.718.12-.564.105-.789.143c-.789.134-2.133.407-2.893.588-.211.053-.588.143-.837.2s-.473.11-.5.115a9.882,9.882,0,0,0-3.864,1.884,8.33,8.33,0,0,0-2.443,3.572c-.076.21-.153.425-.177.478-.081.182-.435,1.711-.689,2.965-.038.21-.1.521-.143.693s-.09.473-.124.669-.067.435-.091.526c-.072.273-.363,2.138-.55,3.491-.182,1.31-.3,2.262-.406,3.228-.053.473-.105.937-.115,1.028s-.058.555-.1,1.028-.1,1.052-.125,1.291c-.1.879-.349,4.71-.473,7.412-.1,2-.158,6.292-.124,8.631.033,2.917.1,5.523.172,6.431.024.368.072,1.143.1,1.721s.067,1.32.091,1.649c.11,1.654.2,2.74.239,3.084.024.211.081.77.12,1.238s.1,1.028.12,1.243.081.679.119,1.033c.12,1.133.211,1.874.287,2.367.038.263.105.712.143,1,.139,1.052.3,2.075.478,3.013.038.21.1.564.144.789.081.478.268,1.43.4,2.032a12.649,12.649,0,0,0,1.2,3.778,8.093,8.093,0,0,0,.425.741c.081.12.2.291.263.383A8.2,8.2,0,0,0,16.1,81.919c.071.052.21.152.3.224a.739.739,0,0,0,.211.134.246.246,0,0,1,.1.072,9.915,9.915,0,0,0,2.066.975c.105.034.234.076.287.1.125.057.827.234,1.674.425.368.086.746.177.837.2.22.057,1.607.334,2.654.526.6.11,1.774.3,2.51.4.277.038.631.09.789.119.578.1,2.97.378,4.471.521.54.053,1.2.115,1.482.143.45.048.909.086,3.108.244.33.024,1.081.067,1.674.1s1.42.071,1.841.1c3.4.2,13.14.2,16.5,0,.421-.029,1.248-.067,1.841-.1,1.018-.048,1.391-.072,2.988-.192,2.046-.157,5.055-.45,6.073-.593.291-.043.794-.11,1.124-.153,1.219-.157,2.893-.411,3.849-.588,1.047-.192,2.434-.469,2.654-.526.09-.024.468-.115.837-.2.827-.187,1.545-.368,1.674-.425q.238-.086.478-.167a13.226,13.226,0,0,0,1.8-.851,1.382,1.382,0,0,1,.21-.153,5.308,5.308,0,0,0,.885-.674,9.43,9.43,0,0,0,1.042-1.119c.043-.067.158-.229.253-.358a1.578,1.578,0,0,0,.182-.273,1.921,1.921,0,0,1,.167-.3,3.178,3.178,0,0,0,.244-.469,2.454,2.454,0,0,1,.115-.253,10.456,10.456,0,0,0,.569-1.612c.225-.837.645-2.811.8-3.744.038-.239.081-.463.1-.5.043-.105.306-1.746.545-3.419.053-.368.105-.737.12-.813.039-.22.21-1.688.287-2.463.038-.383.09-.823.119-.98s.081-.674.12-1.148.091-1.057.115-1.291.072-.784.1-1.219.072-.97.1-1.2.081-1.052.12-1.841.091-1.76.12-2.152c.215-3.476.215-12.6,0-16.186-.024-.407-.067-1.2-.1-1.769s-.072-1.31-.1-1.65-.09-1.191-.143-1.888-.105-1.354-.12-1.458-.057-.569-.1-1.028-.081-.889-.1-.956-.067-.507-.12-.98c-.124-1.143-.277-2.4-.311-2.553-.014-.067-.067-.45-.12-.842-.234-1.788-.669-4.279-1.042-5.977-.053-.239-.138-.626-.191-.861a12.894,12.894,0,0,0-.344-1.339c-.024-.053-.067-.182-.1-.287a12.579,12.579,0,0,0-.77-1.721c-.019-.029-.172-.253-.335-.5a9.467,9.467,0,0,0-1.731-1.8,9.914,9.914,0,0,0-3.662-1.64q-.383-.094-.765-.192c-.177-.052-.531-.129-1.291-.287q-.323-.068-.645-.139c-.923-.224-3.926-.712-5.881-.961-.393-.048-.779-.1-.861-.119-.144-.029-.837-.1-2.247-.239-.393-.038-.933-.1-1.2-.12s-.737-.071-1.052-.1-.832-.067-1.148-.09c-1.071-.091-4.045-.263-5.69-.335-3.18-.139-9.052-.182-12.7-.09Z" transform="translate(-1.31 -4.27)" fill="#fff"/>
        </g>
        <g id="Grupo_1004" data-name="Grupo 1004" transform="translate(1.259 -0.485)">
          <path id="Caminho_465" data-name="Caminho 465" d="M37.916,10.311c-1.828.043-3.169.108-5.628.259-1.137.068-2.378.168-3.253.255-.219.024-.678.068-1.018.1-1.425.14-3.54.407-4.43.559-.188.032-.463.076-.619.1s-.423.068-.6.1-.471.088-.658.12c-.659.112-1.78.339-2.415.491-.176.044-.491.12-.7.168s-.395.092-.419.1a8.249,8.249,0,0,0-3.225,1.572,6.953,6.953,0,0,0-2.039,2.981c-.064.176-.128.355-.147.4-.068.152-.363,1.429-.575,2.475-.032.175-.087.435-.12.579s-.076.395-.1.559-.056.363-.076.439c-.06.228-.3,1.784-.459,2.914-.152,1.094-.251,1.888-.339,2.694-.044.395-.088.782-.1.858s-.048.463-.084.858-.08.878-.1,1.078c-.084.734-.292,3.931-.395,6.186-.08,1.672-.132,5.252-.1,7.2.028,2.434.087,4.61.143,5.368.02.307.06.954.084,1.437s.056,1.1.076,1.377c.092,1.381.164,2.287.2,2.574.02.176.068.643.1,1.034s.08.858.1,1.038.068.567.1.862c.1.946.176,1.564.24,1.976.032.219.088.595.12.838.116.878.251,1.732.4,2.515.032.175.084.471.12.658.068.4.224,1.193.335,1.7a10.558,10.558,0,0,0,1,3.153,6.756,6.756,0,0,0,.355.619c.068.1.168.243.219.319a6.843,6.843,0,0,0,1.238,1.257c.059.043.175.127.251.187a.617.617,0,0,0,.176.112.205.205,0,0,1,.087.06,8.276,8.276,0,0,0,1.724.814c.088.028.2.064.24.084.1.048.69.2,1.4.355.307.072.623.147.7.168.184.048,1.341.279,2.215.439.5.092,1.481.247,2.1.335.231.032.527.076.659.1.483.084,2.479.316,3.732.435.451.044,1.006.1,1.237.12.375.04.758.072,2.594.2.275.02.9.056,1.4.08s1.185.06,1.537.08c2.842.164,10.968.164,13.769,0,.351-.024,1.042-.056,1.537-.08.85-.04,1.161-.06,2.494-.16,1.708-.131,4.219-.375,5.069-.495.243-.036.663-.092.938-.128,1.018-.131,2.415-.343,3.213-.491.874-.16,2.032-.391,2.215-.439.076-.02.391-.1.7-.168.69-.156,1.289-.307,1.4-.355q.2-.072.4-.14a11.039,11.039,0,0,0,1.5-.711,1.153,1.153,0,0,1,.176-.128,4.431,4.431,0,0,0,.739-.563,7.871,7.871,0,0,0,.87-.934c.036-.056.132-.191.211-.3a1.317,1.317,0,0,0,.152-.228,1.6,1.6,0,0,1,.14-.248,2.653,2.653,0,0,0,.2-.391,2.049,2.049,0,0,1,.1-.211,8.728,8.728,0,0,0,.475-1.345c.188-.7.539-2.347.667-3.125.032-.2.068-.387.08-.419.036-.088.256-1.457.455-2.854.044-.307.088-.615.1-.679.032-.184.176-1.409.24-2.055.032-.319.076-.687.1-.818s.068-.563.1-.958.076-.882.1-1.078.06-.654.084-1.018.06-.81.08-1,.068-.878.1-1.536.076-1.469.1-1.8c.18-2.9.18-10.517,0-13.51-.02-.34-.056-1.006-.08-1.477s-.06-1.094-.08-1.377-.076-.994-.12-1.576-.088-1.13-.1-1.217-.048-.475-.08-.858-.068-.742-.08-.8-.056-.423-.1-.818c-.1-.954-.231-2.007-.259-2.131-.012-.056-.056-.375-.1-.7-.2-1.492-.558-3.572-.87-4.989-.044-.2-.115-.523-.159-.718a10.761,10.761,0,0,0-.287-1.118c-.02-.044-.056-.152-.084-.24a10.5,10.5,0,0,0-.643-1.437c-.016-.024-.143-.211-.28-.419a7.9,7.9,0,0,0-1.445-1.5,8.275,8.275,0,0,0-3.057-1.369q-.32-.078-.639-.16c-.148-.043-.443-.108-1.078-.239l-.539-.116c-.77-.187-3.277-.595-4.909-.8-.328-.04-.651-.084-.718-.1-.12-.024-.7-.084-1.876-.2-.328-.032-.778-.08-1-.1s-.615-.06-.878-.084-.695-.056-.958-.076c-.894-.076-3.376-.219-4.75-.28-2.654-.116-7.555-.152-10.6-.076Z" transform="translate(85.436 894.214)" fill="#ed770c"/>
        </g>
      </g>
    </g>
    <g id="Grupo_1027" data-name="Grupo 1027" transform="translate(1603.457 89.714)">
      <g id="Grupo_1026" data-name="Grupo 1026" clip-path="url(#clip-path)">
        <path id="Caminho_473" data-name="Caminho 473" d="M4.849,54.778c.181-.5.321-1.019.547-1.5C7.806,48.2,10.267,43.14,12.609,38.026a7.639,7.639,0,0,0,.337-2.862c.047-1.568-.014-3.14.011-4.709a1.188,1.188,0,0,0-.564-1.08Q6.793,25.2,1.223,20.993a2.509,2.509,0,1,1,2.9-4.083c2.729,2.02,5.43,4.078,8.148,6.113.658.493,1.309,1,2.01,1.428a6.238,6.238,0,0,0,7.288-.357c3.173-2.371,6.334-4.757,9.507-7.129a2.508,2.508,0,1,1,3.024,3.983Q28.677,25.04,23.232,29.1a1.385,1.385,0,0,0-.655,1.273c.039,1.749.1,3.505-.025,5.247a6.869,6.869,0,0,0,.908,3.515q3.409,7.168,6.818,14.336a2.751,2.751,0,1,1-4.957,2.341q-3.167-6.644-6.307-13.3c-.255-.54-.549-1.017-1.213-1.024s-.966.461-1.222,1.005q-3.14,6.657-6.3,13.3A2.737,2.737,0,0,1,6.89,57.475a2.889,2.889,0,0,1-2.042-2.7" transform="translate(0 -13.814)" fill="#fff"/>
        <path id="Caminho_474" data-name="Caminho 474" d="M86.608,0a5.036,5.036,0,1,1-5.022,5.052A5.039,5.039,0,0,1,86.608,0" transform="translate(-68.987 0)" fill="#fff"/>
      </g>
    </g>
  </g>
</svg>
