<svg xmlns="http://www.w3.org/2000/svg" width="294.319" height="72.132" viewBox="0 0 294.319 72.132">
  <g id="Grupo_1885" data-name="Grupo 1885" transform="translate(-394.958 -401.102)">
    <path id="Uni達o_4" data-name="Uni達o 4" d="M115.932,72.017c-1.6-.019-4.737-.052-6.987-.074s-5.1-.056-6.35-.075c-8.347-.123-10.088-.154-11.795-.191-1.051-.022-3.574-.07-5.625-.112-5.7-.112-14.771-.328-16.966-.407-.6-.022-1.942-.064-2.994-.093-2.793-.082-7.242-.228-9.527-.314-3.974-.149-9.236-.366-10.07-.41-.346-.019-1.778-.09-3.175-.157-3.214-.15-5.879-.287-6.352-.332-.2-.019-.689-.053-1.09-.079-1.171-.071-3.194-.25-4.9-.421-2.513-.139-3.037-.173-3.551-.214-.318-.025-1.081-.08-1.7-.127-1.717-.127-4.457-.373-5.12-.462-.18-.025-.587-.072-.9-.105-.843-.093-2.186-.259-2.875-.355-1.2-.17-2.788-.416-3.038-.466-.1-.022-.539-.1-.96-.178-.969-.17-1.774-.326-1.917-.377-.06-.021-.207-.059-.327-.089a13.006,13.006,0,0,1-2.367-.863.3.3,0,0,0-.119-.064.933.933,0,0,1-.242-.118c-.1-.064-.263-.152-.345-.2a8.689,8.689,0,0,1-1.7-1.334c-.071-.081-.208-.234-.3-.339a6.756,6.756,0,0,1-.487-.657,9.577,9.577,0,0,1-1.375-3.344c-.153-.533-.366-1.376-.458-1.8-.051-.2-.121-.513-.164-.7-.2-.83-.39-1.736-.549-2.667-.044-.258-.121-.656-.164-.889-.088-.435-.192-1.092-.329-2.095-.042-.314-.1-.725-.136-.915s-.093-.687-.136-1.1S.729,48.987.7,48.8c-.05-.3-.148-1.266-.274-2.73-.028-.292-.071-.949-.1-1.461s-.088-1.2-.115-1.523c-.076-.8-.158-3.112-.2-5.694-.038-2.069.033-5.868.142-7.641.142-2.392.427-5.783.541-6.562.035-.212.1-.724.144-1.143s.1-.83.113-.91.073-.491.132-.91c.12-.856.256-1.7.465-2.858.214-1.2.548-2.848.63-3.091.027-.08.071-.292.1-.465s.1-.44.142-.592.121-.428.165-.614c.291-1.109.7-2.463.789-2.625.028-.047.115-.237.2-.423a7.658,7.658,0,0,1,2.8-3.162A12.911,12.911,0,0,1,10.8,4.726c.033,0,.289-.052.574-.1s.718-.131.959-.178c.869-.161,2.409-.4,3.313-.521.256-.034.662-.093.9-.127s.614-.084.823-.105.591-.072.848-.106c1.22-.161,4.124-.444,6.079-.592.464-.034,1.095-.081,1.4-.106,1.2-.092,2.9-.2,4.462-.27,1.347-.064,2.45-.114,3.448-.153,1.646-.133,3.332-.243,5.023-.326.109,0,.961-.045,1.9-.089s2.377-.116,3.177-.157c2.885-.143,7.983-.355,10.978-.46.853-.03,2.2-.082,2.994-.112s2.033-.075,2.723-.094c.706-.022,1.957-.063,2.811-.093C67.265.993,76.882.743,83.361.612,84.9.582,86.99.541,87.987.519,91.961.437,97.6.344,102.774.28c11.178-.141,17.276-.2,25.587-.242,13.825-.071,36.108-.038,48.176.07C182.78.165,194.066.3,198.13.37c1.2.018,3.157.052,4.356.07s2.994.056,3.99.079,3.048.063,4.538.093c5.351.109,7.981.165,8.527.186.308.015,1.777.056,3.266.093,7.419.194,18.816.576,22.319.75q1.221.056,2.449.109c2.886.123,4.229.183,4.9.224q1.449.077,2.9.15c1.968.1,3.781.213,5.474.344,1.882.074,4.281.186,5.27.25.361.021.953.059,1.315.08s.9.064,1.2.089.92.072,1.369.106c1.615.123,2.409.186,2.574.212.092.016.536.064.986.105,2.239.22,5.678.653,6.735.851.247.042.493.083.739.123.871.14,1.276.208,1.479.254.292.057.583.114.875.169a13.2,13.2,0,0,1,4.2,1.452,9.837,9.837,0,0,1,1.981,1.6c.186.219.362.419.384.444a10.124,10.124,0,0,1,.882,1.523c.038.093.088.207.115.255a9.4,9.4,0,0,1,.394,1.186c.06.207.159.55.219.762.427,1.5.925,3.708,1.193,5.291.061.348.122.687.137.746.039.132.214,1.248.357,2.26.059.419.12.808.136.867s.067.441.111.847.092.817.109.91.076.674.136,1.292.132,1.367.164,1.671.077.961.111,1.461.08,1.206.109,1.566a139.409,139.409,0,0,1,0,14.33c-.032.347-.088,1.206-.137,1.905s-.1,1.43-.138,1.63-.077.672-.109,1.058-.083.868-.115,1.079-.086.724-.131,1.143-.105.876-.137,1.017-.094.529-.137.868c-.088.685-.285,1.985-.33,2.18-.015.068-.076.394-.137.719-.273,1.482-.575,2.934-.625,3.027a4.287,4.287,0,0,0-.109.444c-.175.826-.658,2.574-.914,3.314a8,8,0,0,1-.651,1.428,2,2,0,0,0-.131.224,2.744,2.744,0,0,1-.28.415,1.6,1.6,0,0,0-.191.263,1.49,1.49,0,0,1-.208.241c-.11.114-.242.258-.29.317a9.642,9.642,0,0,1-1.2.99,6.131,6.131,0,0,1-1.012.6,1.555,1.555,0,0,0-.241.136,17.592,17.592,0,0,1-2.064.753q-.275.073-.547.148c-.148.052-.97.212-1.918.377-.421.076-.853.156-.957.178-.253.05-1.84.3-3.04.466-1.1.156-3.012.381-4.408.52-.378.038-.954.1-1.288.136-1.166.126-4.61.385-6.954.524l-1.374.078c-1.562.154-3.375.32-4.18.375-.606.042-1.212.086-1.815.131-.488.045-3.211.186-6.349.332-1.4.067-2.832.138-3.175.157-.836.044-6.1.261-10.071.41-3.629.138-9.981.337-14.607.46-1.251.034-3.157.086-4.263.12-3.864.112-15.281.34-23.045.463-6.06.093-7.477.112-11.341.149-2.25.023-5.39.053-6.987.074-6.368.077-18.789.115-31.232.115S122.391,72.094,115.932,72.017Z" transform="translate(394.958 401.102)" fill="#fff"/>
    <path id="Uni達o_3" data-name="Uni達o 3" d="M111.371,60.459c-1.535-.016-4.551-.043-6.713-.063s-4.9-.047-6.1-.063c-8.019-.1-9.692-.129-11.331-.16l-5.4-.094c-5.473-.094-14.191-.275-16.3-.342-.575-.018-1.866-.053-2.876-.078-2.683-.069-6.956-.192-9.152-.263-3.818-.125-8.873-.308-9.674-.344-.331-.016-1.708-.075-3.05-.132-3.087-.126-5.648-.241-6.1-.279-.192-.016-.662-.044-1.046-.066-1.125-.06-3.069-.21-4.71-.353-2.414-.117-2.918-.145-3.412-.18-.305-.021-1.037-.067-1.632-.107-1.65-.107-4.282-.313-4.919-.388-.173-.021-.563-.061-.867-.088-.81-.078-2.1-.217-2.762-.3-1.153-.143-2.679-.349-2.919-.391-.1-.018-.517-.086-.922-.149-.93-.143-1.7-.273-1.841-.317-.057-.017-.2-.05-.315-.075A13.691,13.691,0,0,1,7.053,55.5a.312.312,0,0,0-.114-.053.96.96,0,0,1-.233-.1c-.1-.053-.252-.128-.332-.167a8.274,8.274,0,0,1-1.63-1.12l-.29-.285a5.938,5.938,0,0,1-.468-.551,7.538,7.538,0,0,1-1.32-2.807c-.147-.447-.352-1.156-.441-1.51-.048-.168-.116-.431-.158-.586-.2-.7-.374-1.458-.527-2.239-.042-.216-.116-.551-.158-.747-.084-.366-.184-.917-.316-1.759-.04-.263-.1-.609-.131-.768s-.09-.576-.13-.924S.7,41.125.672,40.968C.625,40.713.53,39.906.409,38.676c-.026-.245-.068-.8-.1-1.226S.226,36.444.2,36.171C.126,35.5.047,33.559.01,31.39c-.037-1.737.032-4.926.136-6.415.137-2.008.41-4.855.521-5.509.033-.178.095-.608.138-.959s.094-.7.109-.764.07-.413.127-.764c.116-.718.246-1.425.447-2.4.205-1.005.526-2.391.6-2.595.026-.067.068-.245.1-.39s.095-.369.136-.5.116-.359.158-.516a21.34,21.34,0,0,1,.758-2.2c.026-.04.111-.2.194-.355A6.791,6.791,0,0,1,6.128,5.368a13.539,13.539,0,0,1,4.251-1.4c.032,0,.278-.043.552-.086s.69-.11.921-.149c.835-.135,2.315-.338,3.183-.437.246-.029.636-.078.866-.107s.59-.071.791-.088.567-.061.815-.089c1.172-.135,3.962-.373,5.84-.5.445-.029,1.051-.068,1.341-.089,1.151-.077,2.787-.167,4.286-.227,1.294-.054,2.354-.1,3.312-.129,1.581-.112,3.2-.2,4.826-.274.105,0,.923-.038,1.829-.075s2.283-.1,3.052-.132c2.772-.12,7.669-.3,10.546-.386.819-.025,2.11-.069,2.876-.094s1.953-.063,2.616-.079c.679-.018,1.88-.052,2.7-.078C64.619.834,73.858.624,80.081.514c1.482-.026,3.486-.06,4.445-.078,3.817-.069,9.239-.147,14.206-.2,10.739-.119,16.6-.169,24.58-.2C136.594-.028,158,0,169.594.091c6,.048,16.839.16,20.743.22,1.15.015,3.033.043,4.184.059s2.876.047,3.834.066,2.928.053,4.359.078c5.141.091,7.668.138,8.192.156.3.013,1.707.047,3.138.078,7.128.163,18.076.483,21.441.63l2.352.091c2.773.1,4.063.154,4.708.188q1.393.065,2.79.126c1.891.083,3.632.179,5.259.289,1.807.062,4.113.156,5.062.21.347.017.916.05,1.263.067s.867.053,1.157.075.883.061,1.315.089c1.551.1,2.314.157,2.472.178.089.014.515.053.948.088,2.15.185,5.454.548,6.47.714.237.035.473.07.71.1.837.118,1.227.175,1.422.214.279.048.56.1.841.142a13.942,13.942,0,0,1,4.03,1.219,9.363,9.363,0,0,1,1.9,1.341c.179.184.348.352.368.373a8.325,8.325,0,0,1,.847,1.279,2.251,2.251,0,0,0,.111.214,7.228,7.228,0,0,1,.379,1c.057.174.153.461.21.64a42.652,42.652,0,0,1,1.146,4.442c.058.292.117.576.132.626.037.111.206,1.048.342,1.9.057.352.116.679.131.728s.064.37.106.711.089.686.1.764.074.565.131,1.085.127,1.147.158,1.4.074.807.106,1.226.077,1.013.105,1.315a102.514,102.514,0,0,1,0,12.031c-.032.291-.085,1.013-.132,1.6s-.1,1.2-.132,1.368-.074.564-.1.889-.079.728-.111.906-.083.608-.125.959-.1.736-.132.854-.09.444-.131.728c-.084.575-.274,1.667-.316,1.83-.015.057-.074.331-.132.6-.262,1.244-.552,2.463-.6,2.541a3.162,3.162,0,0,0-.1.373c-.168.693-.631,2.161-.878,2.783a6.338,6.338,0,0,1-.626,1.2,1.648,1.648,0,0,0-.126.188,2.314,2.314,0,0,1-.269.348,1.386,1.386,0,0,0-.184.221,1.286,1.286,0,0,1-.2.2c-.1.1-.232.216-.278.266a9.143,9.143,0,0,1-1.148.831,6.13,6.13,0,0,1-.973.5,1.611,1.611,0,0,0-.232.114,18.448,18.448,0,0,1-1.983.632q-.265.061-.526.124c-.142.043-.931.178-1.841.317-.4.064-.82.131-.92.149-.242.042-1.767.249-2.92.391-1.052.131-2.894.32-4.234.436-.363.032-.916.082-1.236.114-1.12.106-4.429.323-6.681.44l-1.32.066c-1.5.129-3.242.269-4.016.314-.582.035-1.164.072-1.743.11-.469.038-3.086.157-6.1.279-1.344.056-2.72.116-3.05.132-.8.037-5.858.219-9.675.344-3.486.116-9.588.283-14.032.386-1.2.029-3.034.072-4.1.1-3.713.094-14.68.285-22.139.389-5.821.078-7.183.094-10.894.125-2.162.019-5.178.044-6.713.063-6.118.064-18.05.1-30,.1S117.577,60.524,111.371,60.459Z" transform="translate(400.302 407.335)" fill="#0e295b"/>
    <path id="Caminho_1661" data-name="Caminho 1661" d="M-23.4,0H-25.22L-26.7-3.926h-5.937L-34.038,0h-1.826l5.371-14h1.7Zm-3.838-5.4-2.2-5.967a5.713,5.713,0,0,1-.215-.937h-.039a5.231,5.231,0,0,1-.225.938L-32.095-5.4ZM-16.919-.1a3.088,3.088,0,0,1-1.494.313q-2.627,0-2.627-2.93V-8.633h-1.719V-10h1.719v-2.441l1.6-.518V-10h2.52v1.367h-2.52V-3A2.336,2.336,0,0,0-19.1-1.562a1.364,1.364,0,0,0,1.133.43,1.684,1.684,0,0,0,1.045-.332Zm3.74.1h-1.6V-14.8h1.6Zm10.4,0h-1.6V-1.562h-.039A3.353,3.353,0,0,1-7.5.234,3.288,3.288,0,0,1-9.834-.557a2.741,2.741,0,0,1-.845-2.1q0-2.8,3.3-3.262l3-.42q0-2.549-2.061-2.549A4.923,4.923,0,0,0-9.7-7.656V-9.3a6.2,6.2,0,0,1,3.4-.937q3.525,0,3.525,3.73Zm-1.6-5.059-2.412.332a3.916,3.916,0,0,0-1.68.552,1.591,1.591,0,0,0-.566,1.4,1.526,1.526,0,0,0,.522,1.2,2.019,2.019,0,0,0,1.392.464,2.571,2.571,0,0,0,1.968-.835A2.983,2.983,0,0,0-4.38-4.062Zm4.014,4.7V-2.08a4.74,4.74,0,0,0,2.881.967q2.109,0,2.109-1.406A1.22,1.22,0,0,0,4.443-3.2a1.8,1.8,0,0,0-.488-.493,3.758,3.758,0,0,0-.723-.386q-.415-.171-.894-.356a11.508,11.508,0,0,1-1.167-.532,3.525,3.525,0,0,1-.84-.605,2.253,2.253,0,0,1-.508-.767A2.712,2.712,0,0,1-.347-7.344,2.389,2.389,0,0,1-.024-8.589,2.858,2.858,0,0,1,.835-9.5a4.007,4.007,0,0,1,1.226-.552,5.436,5.436,0,0,1,1.421-.186,5.737,5.737,0,0,1,2.324.449v1.621a4.53,4.53,0,0,0-2.539-.723,2.968,2.968,0,0,0-.811.1,1.984,1.984,0,0,0-.62.288,1.331,1.331,0,0,0-.4.444,1.17,1.17,0,0,0-.142.571,1.37,1.37,0,0,0,.142.654,1.44,1.44,0,0,0,.415.469,3.172,3.172,0,0,0,.664.371q.391.166.889.361A12.368,12.368,0,0,1,4.595-5.1a4.086,4.086,0,0,1,.9.605,2.366,2.366,0,0,1,.571.776,2.5,2.5,0,0,1,.2,1.045,2.464,2.464,0,0,1-.327,1.289,2.8,2.8,0,0,1-.874.908A4,4,0,0,1,3.8.059,6.22,6.22,0,0,1,2.31.234,5.674,5.674,0,0,1-.366-.361ZM22.739,0h-1.6V-1.7H21.1A3.7,3.7,0,0,1,17.661.234a3.735,3.735,0,0,1-3.013-1.343,5.509,5.509,0,0,1-1.128-3.657,5.993,5.993,0,0,1,1.25-3.975,4.123,4.123,0,0,1,3.33-1.494,3.206,3.206,0,0,1,3,1.621h.039V-14.8h1.6Zm-1.6-4.521V-6a2.861,2.861,0,0,0-.8-2.051,2.686,2.686,0,0,0-2.031-.84A2.766,2.766,0,0,0,16-7.812a4.707,4.707,0,0,0-.84,2.969,4.234,4.234,0,0,0,.806,2.729,2.633,2.633,0,0,0,2.163,1A2.735,2.735,0,0,0,20.3-2.08,3.6,3.6,0,0,0,21.138-4.521ZM30.161.234a4.638,4.638,0,0,1-3.54-1.4A5.191,5.191,0,0,1,25.3-4.883a5.407,5.407,0,0,1,1.377-3.936A4.95,4.95,0,0,1,30.4-10.234a4.485,4.485,0,0,1,3.491,1.377,5.46,5.46,0,0,1,1.255,3.818,5.372,5.372,0,0,1-1.353,3.833A4.739,4.739,0,0,1,30.161.234Zm.117-9.121a3.046,3.046,0,0,0-2.441,1.05,4.312,4.312,0,0,0-.9,2.9,4.078,4.078,0,0,0,.908,2.8,3.087,3.087,0,0,0,2.432,1.025,2.928,2.928,0,0,0,2.388-1.006A4.365,4.365,0,0,0,33.5-4.98a4.44,4.44,0,0,0-.835-2.891A2.915,2.915,0,0,0,30.278-8.887ZM-115.288,22V8h3.867q7.4,0,7.4,6.826a6.879,6.879,0,0,1-2.056,5.21,7.626,7.626,0,0,1-5.5,1.968Zm1.641-12.52V20.516h2.09a5.931,5.931,0,0,0,4.287-1.475,5.528,5.528,0,0,0,1.533-4.18q0-5.381-5.723-5.381Zm20.205,7.92H-100.5a3.74,3.74,0,0,0,.9,2.578,3.1,3.1,0,0,0,2.363.908,4.913,4.913,0,0,0,3.105-1.113v1.5a5.8,5.8,0,0,1-3.486.957,4.227,4.227,0,0,1-3.33-1.362,5.576,5.576,0,0,1-1.211-3.833,5.468,5.468,0,0,1,1.323-3.8,4.243,4.243,0,0,1,3.286-1.47,3.76,3.76,0,0,1,3.037,1.27,5.293,5.293,0,0,1,1.074,3.525Zm-1.641-1.357a3.259,3.259,0,0,0-.669-2.158,2.279,2.279,0,0,0-1.831-.771,2.587,2.587,0,0,0-1.924.811,3.678,3.678,0,0,0-.977,2.119Zm3.457,5.6V19.92a4.74,4.74,0,0,0,2.881.967q2.109,0,2.109-1.406a1.22,1.22,0,0,0-.181-.679,1.8,1.8,0,0,0-.488-.493,3.758,3.758,0,0,0-.723-.386q-.415-.171-.894-.356a11.508,11.508,0,0,1-1.167-.532,3.525,3.525,0,0,1-.84-.605,2.253,2.253,0,0,1-.508-.767,2.712,2.712,0,0,1-.171-1.006,2.389,2.389,0,0,1,.322-1.245,2.858,2.858,0,0,1,.859-.908,4.007,4.007,0,0,1,1.226-.552,5.436,5.436,0,0,1,1.421-.186,5.737,5.737,0,0,1,2.324.449v1.621a4.53,4.53,0,0,0-2.539-.723,2.968,2.968,0,0,0-.811.1,1.984,1.984,0,0,0-.62.288,1.331,1.331,0,0,0-.4.444,1.171,1.171,0,0,0-.142.571,1.37,1.37,0,0,0,.142.654,1.44,1.44,0,0,0,.415.469,3.172,3.172,0,0,0,.664.371q.391.166.889.361a12.368,12.368,0,0,1,1.191.522,4.086,4.086,0,0,1,.9.605,2.366,2.366,0,0,1,.571.776,2.5,2.5,0,0,1,.2,1.045,2.464,2.464,0,0,1-.327,1.289,2.8,2.8,0,0,1-.874.908,4,4,0,0,1-1.26.537,6.22,6.22,0,0,1-1.494.176A5.674,5.674,0,0,1-91.626,21.639ZM-74.5,17.4h-7.061a3.74,3.74,0,0,0,.9,2.578,3.1,3.1,0,0,0,2.363.908,4.913,4.913,0,0,0,3.105-1.113v1.5a5.8,5.8,0,0,1-3.486.957,4.227,4.227,0,0,1-3.33-1.362,5.576,5.576,0,0,1-1.211-3.833,5.468,5.468,0,0,1,1.323-3.8,4.243,4.243,0,0,1,3.286-1.47,3.76,3.76,0,0,1,3.037,1.27A5.293,5.293,0,0,1-74.5,16.561Zm-1.641-1.357a3.259,3.259,0,0,0-.669-2.158,2.279,2.279,0,0,0-1.831-.771,2.587,2.587,0,0,0-1.924.811,3.678,3.678,0,0,0-.977,2.119ZM-63.774,22h-1.6V16.3q0-3.184-2.324-3.184a2.521,2.521,0,0,0-1.987.9,3.348,3.348,0,0,0-.786,2.28V22h-1.6V12h1.6v1.66h.039a3.609,3.609,0,0,1,3.281-1.895,3.059,3.059,0,0,1,2.51,1.06,4.72,4.72,0,0,1,.869,3.062ZM-52.9,12-56.88,22h-1.572l-3.789-10h1.758l2.539,7.266a6.521,6.521,0,0,1,.352,1.4h.039a6.6,6.6,0,0,1,.313-1.357l2.656-7.3ZM-47,22.234a4.638,4.638,0,0,1-3.54-1.4,5.191,5.191,0,0,1-1.323-3.716,5.407,5.407,0,0,1,1.377-3.936,4.95,4.95,0,0,1,3.721-1.416,4.485,4.485,0,0,1,3.491,1.377,5.46,5.46,0,0,1,1.255,3.818,5.372,5.372,0,0,1-1.353,3.833A4.739,4.739,0,0,1-47,22.234Zm.117-9.121a3.046,3.046,0,0,0-2.441,1.05,4.312,4.312,0,0,0-.9,2.9,4.078,4.078,0,0,0,.908,2.8,3.087,3.087,0,0,0,2.432,1.025,2.928,2.928,0,0,0,2.388-1.006,4.365,4.365,0,0,0,.835-2.861,4.44,4.44,0,0,0-.835-2.891A2.915,2.915,0,0,0-46.88,13.113ZM-37.856,22h-1.6V7.2h1.6Zm11.1-10-3.984,10H-32.31L-36.1,12h1.758l2.539,7.266a6.521,6.521,0,0,1,.352,1.4h.039A6.6,6.6,0,0,1-31.1,19.3l2.656-7.3Zm2.539-2.539a1.015,1.015,0,0,1-.732-.293.989.989,0,0,1-.3-.742,1,1,0,0,1,.3-.747,1.006,1.006,0,0,1,.732-.3,1.034,1.034,0,0,1,.747.3,1,1,0,0,1,.308.747.99.99,0,0,1-.308.732A1.025,1.025,0,0,1-24.214,9.461ZM-23.433,22h-1.6V12h1.6Zm17.441,0h-1.6V16.258a4.332,4.332,0,0,0-.513-2.4,1.944,1.944,0,0,0-1.724-.742,2.134,2.134,0,0,0-1.743.938A3.586,3.586,0,0,0-12.29,16.3V22h-1.6V16.063q0-2.949-2.275-2.949A2.108,2.108,0,0,0-17.905,14a3.653,3.653,0,0,0-.684,2.3V22h-1.6V12h1.6v1.582h.039a3.4,3.4,0,0,1,3.105-1.816,2.9,2.9,0,0,1,1.787.571,2.874,2.874,0,0,1,1.045,1.5,3.569,3.569,0,0,1,3.32-2.07q3.3,0,3.3,4.072ZM5.073,17.4H-1.987a3.74,3.74,0,0,0,.9,2.578,3.1,3.1,0,0,0,2.363.908A4.913,4.913,0,0,0,4.38,19.773v1.5a5.8,5.8,0,0,1-3.486.957,4.227,4.227,0,0,1-3.33-1.362,5.576,5.576,0,0,1-1.211-3.833,5.468,5.468,0,0,1,1.323-3.8,4.243,4.243,0,0,1,3.286-1.47A3.76,3.76,0,0,1,4,13.035a5.293,5.293,0,0,1,1.074,3.525ZM3.433,16.043a3.259,3.259,0,0,0-.669-2.158,2.279,2.279,0,0,0-1.831-.771,2.587,2.587,0,0,0-1.924.811,3.678,3.678,0,0,0-.977,2.119ZM15.8,22h-1.6V16.3q0-3.184-2.324-3.184a2.521,2.521,0,0,0-1.987.9A3.348,3.348,0,0,0,9.1,16.3V22H7.5V12H9.1v1.66h.039a3.609,3.609,0,0,1,3.281-1.895,3.059,3.059,0,0,1,2.51,1.06,4.72,4.72,0,0,1,.869,3.062Zm7.656-.1a3.088,3.088,0,0,1-1.494.313q-2.627,0-2.627-2.93V13.367H17.612V12h1.719V9.559l1.6-.518V12h2.52v1.367h-2.52V19a2.336,2.336,0,0,0,.342,1.436,1.364,1.364,0,0,0,1.133.43,1.684,1.684,0,0,0,1.045-.332Zm6.318.332a4.638,4.638,0,0,1-3.54-1.4,5.191,5.191,0,0,1-1.323-3.716,5.407,5.407,0,0,1,1.377-3.936A4.95,4.95,0,0,1,30,11.766,4.485,4.485,0,0,1,33.5,13.143a5.46,5.46,0,0,1,1.255,3.818A5.372,5.372,0,0,1,33.4,20.794,4.739,4.739,0,0,1,29.771,22.234Zm.117-9.121a3.046,3.046,0,0,0-2.441,1.05,4.312,4.312,0,0,0-.9,2.9,4.078,4.078,0,0,0,.908,2.8,3.087,3.087,0,0,0,2.432,1.025,2.928,2.928,0,0,0,2.388-1.006,4.365,4.365,0,0,0,.835-2.861,4.44,4.44,0,0,0-.835-2.891A2.915,2.915,0,0,0,29.888,13.113ZM53.53,22H51.89V15.613H44.644V22H43V8h1.641v6.143H51.89V8H53.53Zm11.543,0h-1.6V20.418h-.039a3.289,3.289,0,0,1-3.086,1.816q-3.574,0-3.574-4.258V12h1.592v5.723q0,3.164,2.422,3.164a2.45,2.45,0,0,0,1.929-.864,3.307,3.307,0,0,0,.757-2.261V12h1.6ZM82.5,22H80.9V16.258a4.332,4.332,0,0,0-.513-2.4,1.944,1.944,0,0,0-1.724-.742,2.134,2.134,0,0,0-1.743.938,3.586,3.586,0,0,0-.718,2.246V22H74.6V16.063q0-2.949-2.275-2.949A2.108,2.108,0,0,0,70.591,14a3.653,3.653,0,0,0-.684,2.3V22h-1.6V12h1.6v1.582h.039a3.4,3.4,0,0,1,3.105-1.816,2.888,2.888,0,0,1,2.832,2.07,3.569,3.569,0,0,1,3.32-2.07q3.3,0,3.3,4.072ZM92.69,22h-1.6V20.438H91.05a3.353,3.353,0,0,1-3.076,1.8,3.288,3.288,0,0,1-2.339-.791,2.741,2.741,0,0,1-.845-2.1q0-2.8,3.3-3.262l3-.42q0-2.549-2.061-2.549a4.923,4.923,0,0,0-3.262,1.23V12.7a6.2,6.2,0,0,1,3.4-.937q3.525,0,3.525,3.73Zm-1.6-5.059-2.412.332a3.916,3.916,0,0,0-1.68.552,1.591,1.591,0,0,0-.566,1.4,1.526,1.526,0,0,0,.522,1.2,2.019,2.019,0,0,0,1.392.464,2.571,2.571,0,0,0,1.968-.835,2.983,2.983,0,0,0,.776-2.114ZM104.009,22h-1.6V16.3q0-3.184-2.324-3.184a2.521,2.521,0,0,0-1.987.9,3.348,3.348,0,0,0-.786,2.28V22h-1.6V12h1.6v1.66h.039a3.609,3.609,0,0,1,3.281-1.895,3.059,3.059,0,0,1,2.51,1.06,4.72,4.72,0,0,1,.869,3.062Zm7.2.234a4.638,4.638,0,0,1-3.54-1.4,5.191,5.191,0,0,1-1.323-3.716,5.407,5.407,0,0,1,1.377-3.936,4.95,4.95,0,0,1,3.721-1.416,4.485,4.485,0,0,1,3.491,1.377,5.46,5.46,0,0,1,1.255,3.818,5.372,5.372,0,0,1-1.353,3.833A4.739,4.739,0,0,1,111.206,22.234Zm.117-9.121a3.046,3.046,0,0,0-2.441,1.05,4.312,4.312,0,0,0-.9,2.9,4.078,4.078,0,0,0,.908,2.8,3.087,3.087,0,0,0,2.432,1.025,2.928,2.928,0,0,0,2.388-1.006,4.365,4.365,0,0,0,.835-2.861,4.44,4.44,0,0,0-.835-2.891A2.915,2.915,0,0,0,111.323,13.113Z" transform="translate(541.673 431.891)" fill="#fff"/>
  </g>
</svg>
