<svg xmlns="http://www.w3.org/2000/svg" width="202.588" height="72.132" viewBox="0 0 202.588 72.132">
  <g id="Grupo_1880" data-name="Grupo 1880" transform="translate(-394.958 -401.102)">
    <path id="Uni達o_4" data-name="Uni達o 4" d="M79.8,72.017c-1.1-.019-3.261-.052-4.81-.074s-3.51-.056-4.371-.075c-5.746-.123-6.944-.154-8.119-.191-.723-.022-2.46-.07-3.872-.112-3.921-.112-10.168-.328-11.678-.407-.412-.022-1.337-.064-2.061-.093-1.923-.082-4.985-.228-6.558-.314-2.735-.149-6.357-.366-6.931-.41-.238-.019-1.224-.09-2.186-.157-2.212-.15-4.047-.287-4.372-.332-.138-.019-.474-.053-.75-.079-.806-.071-2.2-.25-3.375-.421-1.73-.139-2.091-.173-2.445-.214-.219-.025-.744-.08-1.169-.127-1.182-.127-3.068-.373-3.524-.462-.124-.025-.4-.072-.621-.105-.58-.093-1.5-.259-1.979-.355-.826-.17-1.919-.416-2.091-.466-.072-.022-.371-.1-.661-.178a13.348,13.348,0,0,1-1.319-.377c-.041-.021-.143-.059-.225-.089a7.442,7.442,0,0,1-1.629-.863.2.2,0,0,0-.082-.064.584.584,0,0,1-.167-.118c-.072-.064-.181-.152-.237-.2A7,7,0,0,1,3.4,64.4c-.049-.081-.143-.234-.207-.339a7.177,7.177,0,0,1-.335-.657,12.22,12.22,0,0,1-.947-3.344c-.105-.533-.252-1.376-.316-1.8-.035-.2-.083-.513-.113-.7-.14-.83-.268-1.736-.378-2.667-.03-.258-.083-.656-.113-.889C.93,53.572.859,52.915.764,51.912.736,51.6.693,51.187.67,51s-.064-.687-.094-1.1S.5,48.987.482,48.8c-.035-.3-.1-1.266-.188-2.73-.019-.292-.049-.949-.072-1.461s-.06-1.2-.079-1.523c-.052-.8-.109-3.112-.135-5.694-.026-2.069.023-5.868.1-7.641.1-2.392.294-5.783.373-6.562.024-.212.068-.724.1-1.143s.068-.83.078-.91.05-.491.091-.91c.083-.856.176-1.7.32-2.858.148-1.2.377-2.848.434-3.091.019-.08.049-.292.072-.465s.068-.44.1-.592.083-.428.113-.614c.2-1.109.479-2.463.543-2.625.019-.047.079-.237.139-.423A7.466,7.466,0,0,1,4.391,6.394,7.473,7.473,0,0,1,7.437,4.726c.023,0,.2-.052.4-.1s.494-.131.66-.178c.6-.161,1.658-.4,2.28-.521.176-.034.456-.093.621-.127s.423-.084.566-.105.407-.072.584-.106c.84-.161,2.839-.444,4.184-.592.32-.034.753-.081.961-.106.826-.092,2-.2,3.071-.27.927-.064,1.686-.114,2.373-.153,1.133-.133,2.294-.243,3.458-.326.075,0,.661-.045,1.31-.089s1.636-.116,2.187-.157c1.986-.143,5.495-.355,7.556-.46.587-.03,1.512-.082,2.061-.112s1.4-.075,1.875-.094,1.347-.063,1.935-.093C46.3.993,52.92.743,57.379.612c1.062-.031,2.5-.071,3.184-.093C63.3.437,67.184.344,70.743.28,78.436.139,82.634.078,88.355.038c9.516-.071,24.854-.038,33.161.07,4.3.057,12.065.191,14.863.262.824.018,2.173.052,3,.07s2.061.056,2.747.079,2.1.063,3.124.093c3.683.109,5.493.165,5.869.186.212.015,1.223.056,2.248.093,5.107.194,12.952.576,15.363.75q.84.056,1.686.109c1.986.123,2.911.183,3.373.224q1,.077,2,.15c1.355.1,2.6.213,3.768.344,1.3.074,2.947.186,3.627.25.249.021.656.059.905.08s.621.064.829.089.633.072.942.106c1.112.123,1.658.186,1.772.212.063.016.369.064.679.105,1.541.22,3.909.653,4.636.851.17.042.339.083.509.123.6.14.879.208,1.018.254.2.057.4.114.6.169a7.458,7.458,0,0,1,2.888,1.452,8.037,8.037,0,0,1,1.364,1.6c.128.219.249.419.264.444a11.869,11.869,0,0,1,.607,1.523c.026.093.061.207.079.255.041.1.166.644.271,1.186.041.207.109.55.151.762.294,1.5.636,3.708.821,5.291.042.348.084.687.094.746.027.132.148,1.248.246,2.26.04.419.083.808.093.867s.046.441.076.847.064.817.075.91.053.674.094,1.292.091,1.367.113,1.671.053.961.077,1.461.055,1.206.075,1.566c.169,3.175.169,11.253,0,14.33-.022.347-.061,1.206-.094,1.905s-.071,1.43-.095,1.63-.053.672-.075,1.058-.057.868-.079,1.079-.059.724-.09,1.143-.072.876-.094,1.017-.065.529-.094.868c-.061.685-.2,1.985-.227,2.18-.01.068-.052.394-.094.719-.188,1.482-.4,2.934-.43,3.027-.011.034-.045.233-.075.444-.121.826-.453,2.574-.629,3.314a10.03,10.03,0,0,1-.448,1.428,2.328,2.328,0,0,0-.09.224,3.049,3.049,0,0,1-.193.415,1.732,1.732,0,0,0-.132.263,1.5,1.5,0,0,1-.143.241c-.076.114-.166.258-.2.317a8.029,8.029,0,0,1-.823.99,4.24,4.24,0,0,1-.7.6,1.059,1.059,0,0,0-.166.136,10.045,10.045,0,0,1-1.421.753q-.189.073-.377.148a13.687,13.687,0,0,1-1.32.377c-.29.076-.587.156-.659.178-.174.05-1.266.3-2.093.466-.754.156-2.073.381-3.034.52-.26.038-.657.1-.886.136-.8.126-3.173.385-4.787.524l-.946.078c-1.075.154-2.323.32-2.877.375-.417.042-.834.086-1.249.131-.336.045-2.21.186-4.37.332-.963.067-1.95.138-2.186.157-.575.044-4.2.261-6.932.41-2.5.138-6.87.337-10.055.46-.861.034-2.173.086-2.934.12-2.66.112-10.519.34-15.863.463-4.172.093-5.147.112-7.806.149-1.549.023-3.71.053-4.809.074-4.384.077-12.933.115-21.5.115S84.245,72.094,79.8,72.017Z" transform="translate(394.958 401.102)" fill="#fff"/>
    <path id="Uni達o_3" data-name="Uni達o 3" d="M75.239,60.459c-1.037-.016-3.074-.043-4.535-.063s-3.309-.047-4.121-.063c-5.418-.1-6.547-.129-7.655-.16l-3.65-.094c-3.7-.094-9.587-.275-11.011-.342-.388-.018-1.261-.053-1.943-.078-1.813-.069-4.7-.192-6.183-.263-2.579-.125-5.994-.308-6.535-.344-.224-.016-1.154-.075-2.061-.132-2.086-.126-3.815-.241-4.122-.279-.13-.016-.447-.044-.707-.066-.76-.06-2.073-.21-3.182-.353-1.631-.117-1.971-.145-2.3-.18-.206-.021-.7-.067-1.1-.107-1.115-.107-2.893-.313-3.323-.388-.117-.021-.38-.061-.586-.088-.547-.078-1.419-.217-1.866-.3-.779-.143-1.81-.349-1.972-.391-.067-.018-.349-.086-.623-.149-.629-.143-1.151-.273-1.244-.317-.039-.017-.134-.05-.212-.075A7.339,7.339,0,0,1,4.765,55.5a.188.188,0,0,0-.077-.053.558.558,0,0,1-.157-.1c-.068-.053-.17-.128-.224-.167a6.146,6.146,0,0,1-1.1-1.12l-.2-.285a5.947,5.947,0,0,1-.316-.551A9.425,9.425,0,0,1,1.8,50.422c-.1-.447-.237-1.156-.3-1.51-.032-.168-.078-.431-.107-.586-.132-.7-.253-1.458-.356-2.239-.029-.216-.078-.551-.107-.747C.877,44.974.81,44.423.72,43.581c-.027-.263-.067-.609-.088-.768s-.061-.576-.088-.924-.071-.763-.09-.921c-.032-.255-.1-1.062-.178-2.292-.018-.245-.046-.8-.067-1.226S.152,36.444.134,36.171C.085,35.5.031,33.559.007,31.39c-.025-1.737.021-4.926.092-6.415.092-2.008.277-4.855.352-5.509.022-.178.064-.608.093-.959s.063-.7.073-.764.047-.413.086-.764c.078-.718.166-1.425.3-2.4.139-1.005.355-2.391.409-2.595.017-.067.046-.245.068-.39s.064-.369.092-.5.078-.359.107-.516c.189-.931.451-2.068.512-2.2.018-.04.075-.2.131-.355A6.192,6.192,0,0,1,4.14,5.368a7.338,7.338,0,0,1,2.872-1.4c.021,0,.188-.043.373-.086s.466-.11.623-.149C8.571,3.6,9.571,3.4,10.157,3.3c.166-.029.43-.078.585-.107s.4-.071.534-.088.383-.061.55-.089c.792-.135,2.677-.373,3.945-.5.3-.029.71-.068.906-.089.778-.077,1.882-.167,2.9-.227.874-.054,1.59-.1,2.238-.129,1.068-.112,2.163-.2,3.26-.274.071,0,.624-.038,1.236-.075s1.542-.1,2.062-.132c1.873-.12,5.181-.3,7.125-.386.553-.025,1.425-.069,1.943-.094s1.319-.063,1.767-.079,1.27-.052,1.825-.078C43.655.834,49.9.624,54.1.514c1-.026,2.355-.06,3-.078,2.579-.069,6.242-.147,9.6-.2C73.954.116,77.912.066,83.305.032c8.973-.06,23.434-.032,31.267.059,4.051.048,11.376.16,14.014.22.777.015,2.049.043,2.827.059s1.943.047,2.59.066,1.978.053,2.945.078c3.473.091,5.18.138,5.534.156.2.013,1.153.047,2.12.078,4.815.163,12.212.483,14.485.63l1.589.091c1.873.1,2.745.154,3.18.188q.941.065,1.885.126c1.277.083,2.454.179,3.553.289,1.221.062,2.779.156,3.42.21.235.017.619.05.853.067s.585.053.782.075.6.061.888.089c1.048.1,1.563.157,1.67.178.06.014.348.053.64.088,1.453.185,3.685.548,4.371.714.16.035.32.07.48.1.565.118.829.175.96.214.189.048.378.1.568.142a7.392,7.392,0,0,1,2.723,1.219,7.05,7.05,0,0,1,1.286,1.341c.121.184.235.352.249.373a9.37,9.37,0,0,1,.573,1.279c.025.078.057.174.075.214a9.573,9.573,0,0,1,.256,1c.039.174.1.461.142.64.277,1.261.6,3.113.775,4.442.039.292.079.576.089.626.025.111.139,1.048.231,1.9.039.352.078.679.088.728s.043.37.072.711.06.686.071.764.05.565.089,1.085.085,1.147.107,1.4.05.807.072,1.226.052,1.013.071,1.315c.159,2.666.159,9.447,0,12.031-.021.291-.057,1.013-.089,1.6s-.067,1.2-.089,1.368-.05.564-.071.889-.054.728-.075.906-.056.608-.085.959-.068.736-.089.854-.061.444-.089.728c-.057.575-.185,1.667-.214,1.83-.01.057-.05.331-.089.6-.177,1.244-.373,2.463-.405,2.541-.01.029-.042.2-.071.373-.113.693-.427,2.161-.593,2.783a7.746,7.746,0,0,1-.423,1.2,1.84,1.84,0,0,0-.085.188,2.443,2.443,0,0,1-.182.348,1.423,1.423,0,0,0-.124.221,1.207,1.207,0,0,1-.135.2c-.071.1-.156.216-.188.266a7.02,7.02,0,0,1-.775.831,3.91,3.91,0,0,1-.657.5,1.012,1.012,0,0,0-.156.114,9.87,9.87,0,0,1-1.339.632q-.179.061-.356.124c-.1.043-.629.178-1.244.317-.274.064-.554.131-.622.149-.164.042-1.194.249-1.973.391-.711.131-1.955.32-2.861.436-.245.032-.619.082-.835.114-.757.106-2.992.323-4.513.44l-.892.066c-1.014.129-2.19.269-2.713.314-.393.035-.786.072-1.178.11-.317.038-2.084.157-4.121.279-.908.056-1.838.116-2.061.132-.542.037-3.958.219-6.536.344-2.355.116-6.477.283-9.48.386-.812.029-2.05.072-2.767.1-2.508.094-9.917.285-14.957.389-3.933.078-4.852.094-7.359.125-1.46.019-3.5.044-4.535.063-4.133.064-12.194.1-20.27.1S79.431,60.524,75.239,60.459Z" transform="translate(400.301 407.335)" fill="#0e295b"/>
    <path id="Caminho_1659" data-name="Caminho 1659" d="M-40.546,0h-1.8V-15.4h1.8ZM-38.9-20.346l-2.814,3.523h-1.364l2.4-3.523ZM-27.6,0h-1.762V-6.273q0-3.5-2.557-3.5a2.773,2.773,0,0,0-2.186.994,3.683,3.683,0,0,0-.865,2.508V0h-1.762V-11h1.762v1.826h.043a3.97,3.97,0,0,1,3.609-2.084,3.365,3.365,0,0,1,2.761,1.166A5.192,5.192,0,0,1-27.6-6.725Zm12.708,0h-1.762V-1.869H-16.7A4.067,4.067,0,0,1-20.48.258a4.109,4.109,0,0,1-3.314-1.477,6.059,6.059,0,0,1-1.241-4.023A6.592,6.592,0,0,1-23.66-9.614,4.535,4.535,0,0,1-20-11.258a3.526,3.526,0,0,1,3.3,1.783h.043v-6.811h1.762Zm-1.762-4.974V-6.6a3.147,3.147,0,0,0-.881-2.256,2.954,2.954,0,0,0-2.234-.924,3.042,3.042,0,0,0-2.535,1.182,5.178,5.178,0,0,0-.924,3.266,4.657,4.657,0,0,0,.886,3,2.9,2.9,0,0,0,2.379,1.1,3.009,3.009,0,0,0,2.39-1.063A3.962,3.962,0,0,0-16.656-4.974Zm6.23-8.819a1.116,1.116,0,0,1-.806-.322,1.088,1.088,0,0,1-.333-.816,1.105,1.105,0,0,1,.333-.822,1.107,1.107,0,0,1,.806-.328,1.138,1.138,0,0,1,.822.328,1.1,1.1,0,0,1,.338.822,1.089,1.089,0,0,1-.338.806A1.128,1.128,0,0,1-10.425-13.793ZM-9.566,0h-1.762V-11h1.762ZM1.5-.5A5.724,5.724,0,0,1-1.509.258a4.98,4.98,0,0,1-3.8-1.531A5.548,5.548,0,0,1-6.751-5.242,6.1,6.1,0,0,1-5.194-9.609a5.449,5.449,0,0,1,4.157-1.649,5.787,5.787,0,0,1,2.557.537v1.8A4.479,4.479,0,0,0-1.1-9.775,3.542,3.542,0,0,0-3.867-8.567a4.586,4.586,0,0,0-1.08,3.174A4.366,4.366,0,0,0-3.932-2.342,3.5,3.5,0,0,0-1.208-1.225,4.415,4.415,0,0,0,1.5-2.181ZM13-5.06H5.237a4.114,4.114,0,0,0,.988,2.836,3.407,3.407,0,0,0,2.6,1,5.4,5.4,0,0,0,3.416-1.225V-.795A6.384,6.384,0,0,1,8.406.258a4.649,4.649,0,0,1-3.663-1.5A6.134,6.134,0,0,1,3.411-5.457,6.015,6.015,0,0,1,4.866-9.641a4.667,4.667,0,0,1,3.615-1.617,4.136,4.136,0,0,1,3.341,1.4A5.822,5.822,0,0,1,13-5.983ZM11.2-6.553a3.584,3.584,0,0,0-.736-2.374,2.507,2.507,0,0,0-2.014-.849,2.846,2.846,0,0,0-2.116.892A4.046,4.046,0,0,0,5.258-6.553ZM31.083,0H29.321V-1.869h-.043A4.067,4.067,0,0,1,25.5.258a4.109,4.109,0,0,1-3.314-1.477,6.059,6.059,0,0,1-1.241-4.023,6.592,6.592,0,0,1,1.375-4.372,4.535,4.535,0,0,1,3.663-1.644,3.526,3.526,0,0,1,3.3,1.783h.043v-6.811h1.762ZM29.321-4.974V-6.6a3.147,3.147,0,0,0-.881-2.256,2.954,2.954,0,0,0-2.234-.924A3.042,3.042,0,0,0,23.67-8.594a5.178,5.178,0,0,0-.924,3.266,4.657,4.657,0,0,0,.886,3,2.9,2.9,0,0,0,2.379,1.1A3.009,3.009,0,0,0,28.4-2.288,3.962,3.962,0,0,0,29.321-4.974ZM43.49-5.06H35.723a4.114,4.114,0,0,0,.988,2.836,3.407,3.407,0,0,0,2.6,1,5.4,5.4,0,0,0,3.416-1.225V-.795A6.384,6.384,0,0,1,38.892.258a4.649,4.649,0,0,1-3.663-1.5A6.134,6.134,0,0,1,33.9-5.457a6.015,6.015,0,0,1,1.456-4.184,4.667,4.667,0,0,1,3.615-1.617,4.136,4.136,0,0,1,3.341,1.4A5.822,5.822,0,0,1,43.49-5.983Zm-1.8-1.493a3.584,3.584,0,0,0-.736-2.374,2.507,2.507,0,0,0-2.014-.849,2.846,2.846,0,0,0-2.116.892,4.046,4.046,0,0,0-1.074,2.331Zm-114.42,23.73V23h-1.8V7.6h4.232a5.586,5.586,0,0,1,3.83,1.2,4.3,4.3,0,0,1,1.359,3.395,4.669,4.669,0,0,1-1.509,3.588,5.767,5.767,0,0,1-4.077,1.4Zm0-7.949v6.316h1.891a4.227,4.227,0,0,0,2.852-.854,3.023,3.023,0,0,0,.983-2.412q0-3.051-3.609-3.051Zm16.017,4.555a2.154,2.154,0,0,0-1.332-.354,2.248,2.248,0,0,0-1.885,1.063,4.917,4.917,0,0,0-.757,2.9V23h-1.762V12h1.762v2.267h.043a3.841,3.841,0,0,1,1.149-1.81,2.621,2.621,0,0,1,1.729-.65,2.876,2.876,0,0,1,1.053.15Zm6.51,9.475A5.1,5.1,0,0,1-54.1,21.716a5.71,5.71,0,0,1-1.456-4.087A5.948,5.948,0,0,1-54.044,13.3a5.445,5.445,0,0,1,4.093-1.558,4.934,4.934,0,0,1,3.84,1.515,6.006,6.006,0,0,1,1.38,4.2,5.91,5.91,0,0,1-1.488,4.216A5.213,5.213,0,0,1-50.209,23.258Zm.129-10.033a3.351,3.351,0,0,0-2.686,1.155,4.743,4.743,0,0,0-.988,3.185,4.485,4.485,0,0,0,1,3.083,3.4,3.4,0,0,0,2.675,1.128,3.221,3.221,0,0,0,2.626-1.106,4.8,4.8,0,0,0,.918-3.147,4.884,4.884,0,0,0-.918-3.18A3.206,3.206,0,0,0-50.08,13.225Zm17.553,8.895q0,6.059-5.8,6.059a7.789,7.789,0,0,1-3.566-.773V25.643a7.325,7.325,0,0,0,3.545,1.031q4.061,0,4.061-4.318v-1.2h-.043a4.12,4.12,0,0,1-3.781,2.105,4.129,4.129,0,0,1-3.3-1.466,5.861,5.861,0,0,1-1.251-3.937A6.848,6.848,0,0,1-41.32,13.4a4.5,4.5,0,0,1,3.69-1.654,3.585,3.585,0,0,1,3.3,1.783h.043V12h1.762Zm-1.762-4.093V16.4a3.147,3.147,0,0,0-.886-2.245,2.918,2.918,0,0,0-2.208-.935,3.059,3.059,0,0,0-2.557,1.187,5.3,5.3,0,0,0-.924,3.325,4.548,4.548,0,0,0,.886,2.938,2.863,2.863,0,0,0,2.347,1.1,3.066,3.066,0,0,0,2.412-1.053A3.924,3.924,0,0,0-34.289,18.026Zm11.064-4.243a2.154,2.154,0,0,0-1.332-.354,2.248,2.248,0,0,0-1.885,1.063,4.917,4.917,0,0,0-.757,2.9V23h-1.762V12H-27.2v2.267h.043a3.841,3.841,0,0,1,1.149-1.81,2.621,2.621,0,0,1,1.729-.65,2.876,2.876,0,0,1,1.053.15Zm10.753,4.157h-7.767a4.114,4.114,0,0,0,.988,2.836,3.407,3.407,0,0,0,2.6,1,5.4,5.4,0,0,0,3.416-1.225v1.654a6.384,6.384,0,0,1-3.835,1.053,4.649,4.649,0,0,1-3.663-1.5,6.134,6.134,0,0,1-1.332-4.216,6.015,6.015,0,0,1,1.456-4.184,4.667,4.667,0,0,1,3.615-1.617,4.136,4.136,0,0,1,3.341,1.4,5.822,5.822,0,0,1,1.182,3.878Zm-1.8-1.493a3.584,3.584,0,0,0-.736-2.374,2.507,2.507,0,0,0-2.014-.849,2.846,2.846,0,0,0-2.116.892,4.046,4.046,0,0,0-1.074,2.331Zm3.8,6.155V20.712A5.214,5.214,0,0,0-7.3,21.775q2.32,0,2.32-1.547a1.342,1.342,0,0,0-.2-.747,1.981,1.981,0,0,0-.537-.542,4.134,4.134,0,0,0-.795-.424q-.457-.188-.983-.392a12.659,12.659,0,0,1-1.284-.585,3.878,3.878,0,0,1-.924-.666,2.478,2.478,0,0,1-.559-.843,2.983,2.983,0,0,1-.188-1.106,2.628,2.628,0,0,1,.354-1.37,3.143,3.143,0,0,1,.945-1A4.408,4.408,0,0,1-7.8,11.946a5.98,5.98,0,0,1,1.563-.2,6.311,6.311,0,0,1,2.557.494V14.02a4.983,4.983,0,0,0-2.793-.795,3.265,3.265,0,0,0-.892.113,2.183,2.183,0,0,0-.682.317,1.464,1.464,0,0,0-.44.489,1.288,1.288,0,0,0-.156.628,1.507,1.507,0,0,0,.156.72,1.584,1.584,0,0,0,.457.516,3.49,3.49,0,0,0,.73.408q.43.183.978.4a13.6,13.6,0,0,1,1.311.575,4.5,4.5,0,0,1,.988.666,2.6,2.6,0,0,1,.628.854,2.754,2.754,0,0,1,.22,1.149,2.71,2.71,0,0,1-.36,1.418,3.084,3.084,0,0,1-.961,1,4.4,4.4,0,0,1-1.386.591,6.842,6.842,0,0,1-1.644.193A6.241,6.241,0,0,1-10.474,22.6Zm9.335,0V20.712A5.214,5.214,0,0,0,2.03,21.775q2.32,0,2.32-1.547a1.342,1.342,0,0,0-.2-.747,1.981,1.981,0,0,0-.537-.542,4.134,4.134,0,0,0-.795-.424q-.457-.188-.983-.392a12.659,12.659,0,0,1-1.284-.585,3.878,3.878,0,0,1-.924-.666,2.478,2.478,0,0,1-.559-.843,2.983,2.983,0,0,1-.188-1.106,2.628,2.628,0,0,1,.354-1.37,3.143,3.143,0,0,1,.945-1,4.408,4.408,0,0,1,1.348-.607,5.98,5.98,0,0,1,1.563-.2,6.311,6.311,0,0,1,2.557.494V14.02a4.983,4.983,0,0,0-2.793-.795,3.265,3.265,0,0,0-.892.113,2.183,2.183,0,0,0-.682.317,1.464,1.464,0,0,0-.44.489,1.288,1.288,0,0,0-.156.628,1.507,1.507,0,0,0,.156.72,1.584,1.584,0,0,0,.457.516,3.49,3.49,0,0,0,.73.408q.43.183.978.4a13.6,13.6,0,0,1,1.311.575,4.5,4.5,0,0,1,.988.666,2.6,2.6,0,0,1,.628.854,2.754,2.754,0,0,1,.22,1.149,2.71,2.71,0,0,1-.36,1.418,3.084,3.084,0,0,1-.961,1,4.4,4.4,0,0,1-1.386.591,6.842,6.842,0,0,1-1.644.193A6.241,6.241,0,0,1-1.139,22.6Zm14.6.655a5.1,5.1,0,0,1-3.894-1.542A5.71,5.71,0,0,1,8.11,17.629,5.948,5.948,0,0,1,9.625,13.3a5.445,5.445,0,0,1,4.093-1.558,4.934,4.934,0,0,1,3.84,1.515,6.006,6.006,0,0,1,1.38,4.2,5.91,5.91,0,0,1-1.488,4.216A5.213,5.213,0,0,1,13.46,23.258Zm.129-10.033A3.351,3.351,0,0,0,10.9,14.379a4.743,4.743,0,0,0-.988,3.185,4.485,4.485,0,0,0,1,3.083,3.4,3.4,0,0,0,2.675,1.128,3.221,3.221,0,0,0,2.626-1.106,4.8,4.8,0,0,0,.918-3.147,4.884,4.884,0,0,0-.918-3.18A3.206,3.206,0,0,0,13.589,13.225ZM27.3,22.377V20.25a4.131,4.131,0,0,0,.875.58,7.093,7.093,0,0,0,1.074.435,8.552,8.552,0,0,0,1.133.274,6.319,6.319,0,0,0,1.053.1,4.124,4.124,0,0,0,2.487-.618,2.317,2.317,0,0,0,.548-2.863,3.086,3.086,0,0,0-.757-.843,7.515,7.515,0,0,0-1.144-.73q-.661-.349-1.423-.736-.806-.408-1.5-.827a6.517,6.517,0,0,1-1.214-.924,3.853,3.853,0,0,1-.811-1.144,3.541,3.541,0,0,1-.3-1.5,3.524,3.524,0,0,1,.462-1.832,3.962,3.962,0,0,1,1.214-1.284,5.5,5.5,0,0,1,1.713-.752,7.845,7.845,0,0,1,1.96-.247,7.513,7.513,0,0,1,3.319.548v2.03a6.017,6.017,0,0,0-3.5-.945,5.759,5.759,0,0,0-1.182.124,3.338,3.338,0,0,0-1.053.4,2.332,2.332,0,0,0-.752.72,1.91,1.91,0,0,0-.29,1.074,2.212,2.212,0,0,0,.22,1.021,2.5,2.5,0,0,0,.65.784,6.473,6.473,0,0,0,1.047.688q.618.333,1.423.73.827.408,1.568.859a7.169,7.169,0,0,1,1.3,1,4.44,4.44,0,0,1,.886,1.214,3.412,3.412,0,0,1,.328,1.525,3.868,3.868,0,0,1-.446,1.928,3.659,3.659,0,0,1-1.2,1.284,5.255,5.255,0,0,1-1.746.714,9.56,9.56,0,0,1-2.084.22,8.492,8.492,0,0,1-.9-.059q-.537-.059-1.1-.172a8.941,8.941,0,0,1-1.058-.279A3.292,3.292,0,0,1,27.3,22.377Zm16.769.881a5.1,5.1,0,0,1-3.894-1.542,5.71,5.71,0,0,1-1.456-4.087A5.948,5.948,0,0,1,40.229,13.3a5.445,5.445,0,0,1,4.093-1.558,4.934,4.934,0,0,1,3.84,1.515,6.006,6.006,0,0,1,1.38,4.2,5.91,5.91,0,0,1-1.488,4.216A5.213,5.213,0,0,1,44.064,23.258Zm.129-10.033a3.351,3.351,0,0,0-2.686,1.155,4.743,4.743,0,0,0-.988,3.185,4.485,4.485,0,0,0,1,3.083,3.4,3.4,0,0,0,2.675,1.128,3.221,3.221,0,0,0,2.626-1.106,4.8,4.8,0,0,0,.918-3.147,4.884,4.884,0,0,0-.918-3.18A3.206,3.206,0,0,0,44.193,13.225ZM59.855,22.5a5.724,5.724,0,0,1-3.008.763,4.98,4.98,0,0,1-3.8-1.531,5.548,5.548,0,0,1-1.445-3.969,6.1,6.1,0,0,1,1.558-4.367,5.449,5.449,0,0,1,4.157-1.649,5.787,5.787,0,0,1,2.557.537v1.8a4.479,4.479,0,0,0-2.621-.859,3.542,3.542,0,0,0-2.766,1.208,4.586,4.586,0,0,0-1.08,3.174,4.366,4.366,0,0,0,1.015,3.051,3.5,3.5,0,0,0,2.723,1.117,4.415,4.415,0,0,0,2.707-.956ZM63.422,9.207a1.116,1.116,0,0,1-.806-.322,1.088,1.088,0,0,1-.333-.816,1.128,1.128,0,0,1,1.139-1.149,1.138,1.138,0,0,1,.822.328,1.148,1.148,0,0,1,0,1.627A1.128,1.128,0,0,1,63.422,9.207ZM64.281,23H62.52V12h1.762Zm11.44,0H73.96V21.281h-.043a3.688,3.688,0,0,1-3.384,1.977,3.616,3.616,0,0,1-2.573-.87,3.015,3.015,0,0,1-.929-2.31q0-3.083,3.631-3.588l3.3-.462q0-2.8-2.267-2.8a5.415,5.415,0,0,0-3.588,1.354v-1.8a6.817,6.817,0,0,1,3.738-1.031q3.878,0,3.878,4.1ZM73.96,17.436l-2.653.365a4.308,4.308,0,0,0-1.848.607,1.75,1.75,0,0,0-.623,1.542,1.679,1.679,0,0,0,.575,1.316,2.221,2.221,0,0,0,1.531.51,2.828,2.828,0,0,0,2.165-.918,3.282,3.282,0,0,0,.854-2.326ZM80.8,23H79.041V6.715H80.8Z" transform="translate(495.808 433.145)" fill="#fff"/>
  </g>
</svg>
