<svg xmlns="http://www.w3.org/2000/svg" width="202.588" height="72.132" viewBox="0 0 202.588 72.132">
  <g id="Grupo_1876" data-name="Grupo 1876" transform="translate(-394.958 -401.102)">
    <path id="Uni達o_4" data-name="Uni達o 4" d="M79.8,72.017c-1.1-.019-3.261-.052-4.81-.074s-3.51-.056-4.371-.075c-5.746-.123-6.944-.154-8.119-.191-.723-.022-2.46-.07-3.872-.112-3.921-.112-10.168-.328-11.678-.407-.412-.022-1.337-.064-2.061-.093-1.923-.082-4.985-.228-6.558-.314-2.735-.149-6.357-.366-6.931-.41-.238-.019-1.224-.09-2.186-.157-2.212-.15-4.047-.287-4.372-.332-.138-.019-.474-.053-.75-.079-.806-.071-2.2-.25-3.375-.421-1.73-.139-2.091-.173-2.445-.214-.219-.025-.744-.08-1.169-.127-1.182-.127-3.068-.373-3.524-.462-.124-.025-.4-.072-.621-.105-.58-.093-1.5-.259-1.979-.355-.826-.17-1.919-.416-2.091-.466-.072-.022-.371-.1-.661-.178a13.348,13.348,0,0,1-1.319-.377c-.041-.021-.143-.059-.225-.089a7.442,7.442,0,0,1-1.629-.863.2.2,0,0,0-.082-.064.584.584,0,0,1-.167-.118c-.072-.064-.181-.152-.237-.2A7,7,0,0,1,3.4,64.4c-.049-.081-.143-.234-.207-.339a7.177,7.177,0,0,1-.335-.657,12.22,12.22,0,0,1-.947-3.344c-.105-.533-.252-1.376-.316-1.8-.035-.2-.083-.513-.113-.7-.14-.83-.268-1.736-.378-2.667-.03-.258-.083-.656-.113-.889C.93,53.572.859,52.915.764,51.912.736,51.6.693,51.187.67,51s-.064-.687-.094-1.1S.5,48.987.482,48.8c-.035-.3-.1-1.266-.188-2.73-.019-.292-.049-.949-.072-1.461s-.06-1.2-.079-1.523c-.052-.8-.109-3.112-.135-5.694-.026-2.069.023-5.868.1-7.641.1-2.392.294-5.783.373-6.562.024-.212.068-.724.1-1.143s.068-.83.078-.91.05-.491.091-.91c.083-.856.176-1.7.32-2.858.148-1.2.377-2.848.434-3.091.019-.08.049-.292.072-.465s.068-.44.1-.592.083-.428.113-.614c.2-1.109.479-2.463.543-2.625.019-.047.079-.237.139-.423A7.466,7.466,0,0,1,4.391,6.394,7.473,7.473,0,0,1,7.437,4.726c.023,0,.2-.052.4-.1s.494-.131.66-.178c.6-.161,1.658-.4,2.28-.521.176-.034.456-.093.621-.127s.423-.084.566-.105.407-.072.584-.106c.84-.161,2.839-.444,4.184-.592.32-.034.753-.081.961-.106.826-.092,2-.2,3.071-.27.927-.064,1.686-.114,2.373-.153,1.133-.133,2.294-.243,3.458-.326.075,0,.661-.045,1.31-.089s1.636-.116,2.187-.157c1.986-.143,5.495-.355,7.556-.46.587-.03,1.512-.082,2.061-.112s1.4-.075,1.875-.094,1.347-.063,1.935-.093C46.3.993,52.92.743,57.379.612c1.062-.031,2.5-.071,3.184-.093C63.3.437,67.184.344,70.743.28,78.436.139,82.634.078,88.355.038c9.516-.071,24.854-.038,33.161.07,4.3.057,12.065.191,14.863.262.824.018,2.173.052,3,.07s2.061.056,2.747.079,2.1.063,3.124.093c3.683.109,5.493.165,5.869.186.212.015,1.223.056,2.248.093,5.107.194,12.952.576,15.363.75q.84.056,1.686.109c1.986.123,2.911.183,3.373.224q1,.077,2,.15c1.355.1,2.6.213,3.768.344,1.3.074,2.947.186,3.627.25.249.021.656.059.905.08s.621.064.829.089.633.072.942.106c1.112.123,1.658.186,1.772.212.063.016.369.064.679.105,1.541.22,3.909.653,4.636.851.17.042.339.083.509.123.6.14.879.208,1.018.254.2.057.4.114.6.169a7.458,7.458,0,0,1,2.888,1.452,8.037,8.037,0,0,1,1.364,1.6c.128.219.249.419.264.444a11.869,11.869,0,0,1,.607,1.523c.026.093.061.207.079.255.041.1.166.644.271,1.186.041.207.109.55.151.762.294,1.5.636,3.708.821,5.291.042.348.084.687.094.746.027.132.148,1.248.246,2.26.04.419.083.808.093.867s.046.441.076.847.064.817.075.91.053.674.094,1.292.091,1.367.113,1.671.053.961.077,1.461.055,1.206.075,1.566c.169,3.175.169,11.253,0,14.33-.022.347-.061,1.206-.094,1.905s-.071,1.43-.095,1.63-.053.672-.075,1.058-.057.868-.079,1.079-.059.724-.09,1.143-.072.876-.094,1.017-.065.529-.094.868c-.061.685-.2,1.985-.227,2.18-.01.068-.052.394-.094.719-.188,1.482-.4,2.934-.43,3.027-.011.034-.045.233-.075.444-.121.826-.453,2.574-.629,3.314a10.03,10.03,0,0,1-.448,1.428,2.328,2.328,0,0,0-.09.224,3.049,3.049,0,0,1-.193.415,1.732,1.732,0,0,0-.132.263,1.5,1.5,0,0,1-.143.241c-.076.114-.166.258-.2.317a8.029,8.029,0,0,1-.823.99,4.24,4.24,0,0,1-.7.6,1.059,1.059,0,0,0-.166.136,10.045,10.045,0,0,1-1.421.753q-.189.073-.377.148a13.687,13.687,0,0,1-1.32.377c-.29.076-.587.156-.659.178-.174.05-1.266.3-2.093.466-.754.156-2.073.381-3.034.52-.26.038-.657.1-.886.136-.8.126-3.173.385-4.787.524l-.946.078c-1.075.154-2.323.32-2.877.375-.417.042-.834.086-1.249.131-.336.045-2.21.186-4.37.332-.963.067-1.95.138-2.186.157-.575.044-4.2.261-6.932.41-2.5.138-6.87.337-10.055.46-.861.034-2.173.086-2.934.12-2.66.112-10.519.34-15.863.463-4.172.093-5.147.112-7.806.149-1.549.023-3.71.053-4.809.074-4.384.077-12.933.115-21.5.115S84.245,72.094,79.8,72.017Z" transform="translate(394.958 401.102)" fill="#fff"/>
    <path id="Uni達o_3" data-name="Uni達o 3" d="M75.239,60.459c-1.037-.016-3.074-.043-4.535-.063s-3.309-.047-4.121-.063c-5.418-.1-6.547-.129-7.655-.16l-3.65-.094c-3.7-.094-9.587-.275-11.011-.342-.388-.018-1.261-.053-1.943-.078-1.813-.069-4.7-.192-6.183-.263-2.579-.125-5.994-.308-6.535-.344-.224-.016-1.154-.075-2.061-.132-2.086-.126-3.815-.241-4.122-.279-.13-.016-.447-.044-.707-.066-.76-.06-2.073-.21-3.182-.353-1.631-.117-1.971-.145-2.3-.18-.206-.021-.7-.067-1.1-.107-1.115-.107-2.893-.313-3.323-.388-.117-.021-.38-.061-.586-.088-.547-.078-1.419-.217-1.866-.3-.779-.143-1.81-.349-1.972-.391-.067-.018-.349-.086-.623-.149-.629-.143-1.151-.273-1.244-.317-.039-.017-.134-.05-.212-.075A7.339,7.339,0,0,1,4.765,55.5a.188.188,0,0,0-.077-.053.558.558,0,0,1-.157-.1c-.068-.053-.17-.128-.224-.167a6.146,6.146,0,0,1-1.1-1.12l-.2-.285a5.947,5.947,0,0,1-.316-.551A9.425,9.425,0,0,1,1.8,50.422c-.1-.447-.237-1.156-.3-1.51-.032-.168-.078-.431-.107-.586-.132-.7-.253-1.458-.356-2.239-.029-.216-.078-.551-.107-.747C.877,44.974.81,44.423.72,43.581c-.027-.263-.067-.609-.088-.768s-.061-.576-.088-.924-.071-.763-.09-.921c-.032-.255-.1-1.062-.178-2.292-.018-.245-.046-.8-.067-1.226S.152,36.444.134,36.171C.085,35.5.031,33.559.007,31.39c-.025-1.737.021-4.926.092-6.415.092-2.008.277-4.855.352-5.509.022-.178.064-.608.093-.959s.063-.7.073-.764.047-.413.086-.764c.078-.718.166-1.425.3-2.4.139-1.005.355-2.391.409-2.595.017-.067.046-.245.068-.39s.064-.369.092-.5.078-.359.107-.516c.189-.931.451-2.068.512-2.2.018-.04.075-.2.131-.355A6.192,6.192,0,0,1,4.14,5.368a7.338,7.338,0,0,1,2.872-1.4c.021,0,.188-.043.373-.086s.466-.11.623-.149C8.571,3.6,9.571,3.4,10.157,3.3c.166-.029.43-.078.585-.107s.4-.071.534-.088.383-.061.55-.089c.792-.135,2.677-.373,3.945-.5.3-.029.71-.068.906-.089.778-.077,1.882-.167,2.9-.227.874-.054,1.59-.1,2.238-.129,1.068-.112,2.163-.2,3.26-.274.071,0,.624-.038,1.236-.075s1.542-.1,2.062-.132c1.873-.12,5.181-.3,7.125-.386.553-.025,1.425-.069,1.943-.094s1.319-.063,1.767-.079,1.27-.052,1.825-.078C43.655.834,49.9.624,54.1.514c1-.026,2.355-.06,3-.078,2.579-.069,6.242-.147,9.6-.2C73.954.116,77.912.066,83.305.032c8.973-.06,23.434-.032,31.267.059,4.051.048,11.376.16,14.014.22.777.015,2.049.043,2.827.059s1.943.047,2.59.066,1.978.053,2.945.078c3.473.091,5.18.138,5.534.156.2.013,1.153.047,2.12.078,4.815.163,12.212.483,14.485.63l1.589.091c1.873.1,2.745.154,3.18.188q.941.065,1.885.126c1.277.083,2.454.179,3.553.289,1.221.062,2.779.156,3.42.21.235.017.619.05.853.067s.585.053.782.075.6.061.888.089c1.048.1,1.563.157,1.67.178.06.014.348.053.64.088,1.453.185,3.685.548,4.371.714.16.035.32.07.48.1.565.118.829.175.96.214.189.048.378.1.568.142a7.392,7.392,0,0,1,2.723,1.219,7.05,7.05,0,0,1,1.286,1.341c.121.184.235.352.249.373a9.37,9.37,0,0,1,.573,1.279c.025.078.057.174.075.214a9.573,9.573,0,0,1,.256,1c.039.174.1.461.142.64.277,1.261.6,3.113.775,4.442.039.292.079.576.089.626.025.111.139,1.048.231,1.9.039.352.078.679.088.728s.043.37.072.711.06.686.071.764.05.565.089,1.085.085,1.147.107,1.4.05.807.072,1.226.052,1.013.071,1.315c.159,2.666.159,9.447,0,12.031-.021.291-.057,1.013-.089,1.6s-.067,1.2-.089,1.368-.05.564-.071.889-.054.728-.075.906-.056.608-.085.959-.068.736-.089.854-.061.444-.089.728c-.057.575-.185,1.667-.214,1.83-.01.057-.05.331-.089.6-.177,1.244-.373,2.463-.405,2.541-.01.029-.042.2-.071.373-.113.693-.427,2.161-.593,2.783a7.746,7.746,0,0,1-.423,1.2,1.84,1.84,0,0,0-.085.188,2.443,2.443,0,0,1-.182.348,1.423,1.423,0,0,0-.124.221,1.207,1.207,0,0,1-.135.2c-.071.1-.156.216-.188.266a7.02,7.02,0,0,1-.775.831,3.91,3.91,0,0,1-.657.5,1.012,1.012,0,0,0-.156.114,9.87,9.87,0,0,1-1.339.632q-.179.061-.356.124c-.1.043-.629.178-1.244.317-.274.064-.554.131-.622.149-.164.042-1.194.249-1.973.391-.711.131-1.955.32-2.861.436-.245.032-.619.082-.835.114-.757.106-2.992.323-4.513.44l-.892.066c-1.014.129-2.19.269-2.713.314-.393.035-.786.072-1.178.11-.317.038-2.084.157-4.121.279-.908.056-1.838.116-2.061.132-.542.037-3.958.219-6.536.344-2.355.116-6.477.283-9.48.386-.812.029-2.05.072-2.767.1-2.508.094-9.917.285-14.957.389-3.933.078-4.852.094-7.359.125-1.46.019-3.5.044-4.535.063-4.133.064-12.194.1-20.27.1S79.431,60.524,75.239,60.459Z" transform="translate(400.301 407.335)" fill="#0e295b"/>
    <path id="Caminho_1656" data-name="Caminho 1656" d="M4.346,0H2.295V-17.5H4.346Zm4.6,0V-17.5h4.98a5.444,5.444,0,0,1,3.6,1.111A3.59,3.59,0,0,1,18.86-13.5a4.257,4.257,0,0,1-.806,2.588,4.345,4.345,0,0,1-2.222,1.563V-9.3a4.453,4.453,0,0,1,2.832,1.337,4.111,4.111,0,0,1,1.062,2.936,4.577,4.577,0,0,1-1.611,3.638A6,6,0,0,1,14.05,0ZM11-15.649V-10h2.1a3.987,3.987,0,0,0,2.649-.812,2.827,2.827,0,0,0,.964-2.289q0-2.551-3.357-2.551Zm0,7.5v6.3h2.783a4.17,4.17,0,0,0,2.8-.854,2.927,2.927,0,0,0,.995-2.344q0-3.1-4.224-3.1ZM36.365-1.2A11.706,11.706,0,0,1,30.505.293a8.007,8.007,0,0,1-6.061-2.417,8.865,8.865,0,0,1-2.313-6.4,9.1,9.1,0,0,1,2.57-6.671A8.76,8.76,0,0,1,31.213-17.8a11.083,11.083,0,0,1,4.8.928V-14.6a9.213,9.213,0,0,0-5.029-1.343,6.283,6.283,0,0,0-4.822,2.026,7.411,7.411,0,0,0-1.88,5.249,7.415,7.415,0,0,0,1.746,5.219,6.118,6.118,0,0,0,4.736,1.9,7.318,7.318,0,0,0,3.552-.818V-7.275H30.481V-9.131h5.884ZM49.707,0H40.43V-17.5h8.887v1.855H42.48v5.823H48.8v1.843H42.48v6.128h7.227ZM71.838-.732A10.267,10.267,0,0,1,67,.293a7.8,7.8,0,0,1-5.981-2.4,8.873,8.873,0,0,1-2.246-6.311A9.3,9.3,0,0,1,61.3-15.21,8.576,8.576,0,0,1,67.712-17.8a10.275,10.275,0,0,1,4.126.72v2.185a8.367,8.367,0,0,0-4.15-1.05A6.369,6.369,0,0,0,62.8-13.928a7.588,7.588,0,0,0-1.874,5.383,7.22,7.22,0,0,0,1.752,5.1,5.96,5.96,0,0,0,4.6,1.9,8.622,8.622,0,0,0,4.565-1.172ZM76.16-15.674a1.268,1.268,0,0,1-.916-.366,1.236,1.236,0,0,1-.378-.928,1.256,1.256,0,0,1,.378-.934,1.258,1.258,0,0,1,.916-.372,1.293,1.293,0,0,1,.934.372,1.246,1.246,0,0,1,.385.934,1.237,1.237,0,0,1-.385.916A1.282,1.282,0,0,1,76.16-15.674ZM77.136,0h-2V-12.5h2ZM91.858,0h-2V-2.124h-.049A4.621,4.621,0,0,1,85.51.293a4.669,4.669,0,0,1-3.766-1.678,6.886,6.886,0,0,1-1.41-4.572A7.491,7.491,0,0,1,81.9-10.925a5.153,5.153,0,0,1,4.163-1.868,4.007,4.007,0,0,1,3.748,2.026h.049v-7.739h2Zm-2-5.652V-7.5a3.576,3.576,0,0,0-1-2.563,3.357,3.357,0,0,0-2.539-1.05,3.457,3.457,0,0,0-2.881,1.343,5.884,5.884,0,0,0-1.05,3.711,5.292,5.292,0,0,0,1.007,3.412,3.291,3.291,0,0,0,2.7,1.251A3.419,3.419,0,0,0,88.812-2.6,4.5,4.5,0,0,0,89.856-5.652Zm15,5.652h-2V-1.953h-.049A4.191,4.191,0,0,1,98.962.293,4.109,4.109,0,0,1,96.039-.7,3.426,3.426,0,0,1,94.983-3.32q0-3.5,4.126-4.077l3.748-.525q0-3.186-2.576-3.186A6.154,6.154,0,0,0,96.2-9.57v-2.051a7.746,7.746,0,0,1,4.248-1.172q4.407,0,4.407,4.663Zm-2-6.323-3.015.415a4.9,4.9,0,0,0-2.1.69,1.989,1.989,0,0,0-.708,1.752,1.908,1.908,0,0,0,.653,1.5,2.524,2.524,0,0,0,1.74.58,3.213,3.213,0,0,0,2.46-1.044,3.729,3.729,0,0,0,.97-2.643ZM119.3,0h-2V-2.124h-.049a4.621,4.621,0,0,1-4.3,2.417,4.669,4.669,0,0,1-3.766-1.678,6.886,6.886,0,0,1-1.41-4.572,7.491,7.491,0,0,1,1.563-4.968,5.153,5.153,0,0,1,4.163-1.868,4.007,4.007,0,0,1,3.748,2.026h.049v-7.739h2Zm-2-5.652V-7.5a3.576,3.576,0,0,0-1-2.563,3.357,3.357,0,0,0-2.539-1.05,3.457,3.457,0,0,0-2.881,1.343,5.884,5.884,0,0,0-1.05,3.711,5.292,5.292,0,0,0,1.007,3.412,3.291,3.291,0,0,0,2.7,1.251A3.419,3.419,0,0,0,116.254-2.6,4.5,4.5,0,0,0,117.3-5.652Zm16.1-.1h-8.826A4.675,4.675,0,0,0,125.7-2.527a3.872,3.872,0,0,0,2.954,1.135,6.142,6.142,0,0,0,3.882-1.392V-.9a7.255,7.255,0,0,1-4.358,1.2,5.283,5.283,0,0,1-4.163-1.7A6.97,6.97,0,0,1,122.5-6.2a6.835,6.835,0,0,1,1.654-4.755,5.3,5.3,0,0,1,4.108-1.837,4.7,4.7,0,0,1,3.8,1.587A6.616,6.616,0,0,1,133.4-6.8Zm-2.051-1.7a4.073,4.073,0,0,0-.836-2.7,2.849,2.849,0,0,0-2.289-.964,3.234,3.234,0,0,0-2.4,1.013A4.6,4.6,0,0,0,124.6-7.446Zm4.321,6.995V-2.6a5.925,5.925,0,0,0,3.6,1.208q2.637,0,2.637-1.758A1.525,1.525,0,0,0,141.681-4a2.251,2.251,0,0,0-.61-.616,4.7,4.7,0,0,0-.9-.482q-.519-.214-1.117-.446a14.385,14.385,0,0,1-1.459-.665,4.407,4.407,0,0,1-1.05-.757,2.816,2.816,0,0,1-.635-.958,3.39,3.39,0,0,1-.214-1.257,2.987,2.987,0,0,1,.4-1.556,3.572,3.572,0,0,1,1.074-1.135,5.009,5.009,0,0,1,1.532-.69,6.8,6.8,0,0,1,1.776-.232,7.172,7.172,0,0,1,2.905.562v2.026a5.662,5.662,0,0,0-3.174-.9,3.71,3.71,0,0,0-1.013.128,2.48,2.48,0,0,0-.775.36,1.664,1.664,0,0,0-.5.555,1.463,1.463,0,0,0-.177.714,1.713,1.713,0,0,0,.177.818,1.8,1.8,0,0,0,.519.586,3.965,3.965,0,0,0,.83.464q.488.208,1.111.452a15.46,15.46,0,0,1,1.489.653,5.108,5.108,0,0,1,1.123.757,2.957,2.957,0,0,1,.714.97,3.13,3.13,0,0,1,.25,1.306,3.08,3.08,0,0,1-.409,1.611A3.5,3.5,0,0,1,142.456-.6a5,5,0,0,1-1.575.671,7.775,7.775,0,0,1-1.868.22A7.092,7.092,0,0,1,135.669-.452Z" transform="translate(428.153 446.145)" fill="#fff"/>
  </g>
</svg>
