<svg xmlns="http://www.w3.org/2000/svg" xmlns:xlink="http://www.w3.org/1999/xlink" width="266.509" height="72.132" viewBox="0 0 266.509 72.132">
  <defs>
    <clipPath id="clip-path">
      <rect id="Retângulo_1357" data-name="Retângulo 1357" width="28" height="29.001" fill="none" stroke="#fff" stroke-width="4"/>
    </clipPath>
  </defs>
  <g id="Grupo_1893" data-name="Grupo 1893" transform="translate(-843.122 -13891.434)">
    <g id="Grupo_1890" data-name="Grupo 1890" transform="translate(448.164 13490.332)">
      <path id="União_4" data-name="União 4" d="M104.977,72.017c-1.447-.019-4.29-.052-6.327-.074s-4.617-.056-5.75-.075c-7.558-.123-9.135-.154-10.68-.191-.952-.022-3.237-.07-5.093-.112-5.159-.112-13.376-.328-15.363-.407-.542-.022-1.759-.064-2.711-.093-2.529-.082-6.558-.228-8.627-.314-3.6-.149-8.363-.366-9.118-.41-.313-.019-1.61-.09-2.875-.157-2.91-.15-5.324-.287-5.751-.332-.181-.019-.624-.053-.987-.079-1.06-.071-2.892-.25-4.44-.421-2.275-.139-2.75-.173-3.216-.214-.288-.025-.979-.08-1.538-.127-1.555-.127-4.036-.373-4.636-.462-.163-.025-.531-.072-.817-.105-.763-.093-1.98-.259-2.6-.355-1.087-.17-2.525-.416-2.751-.466-.094-.022-.488-.1-.869-.178-.877-.17-1.606-.326-1.736-.377-.054-.021-.188-.059-.3-.089a11.092,11.092,0,0,1-2.143-.863.267.267,0,0,0-.108-.064.812.812,0,0,1-.219-.118c-.094-.064-.238-.152-.312-.2A8.043,8.043,0,0,1,4.472,64.4c-.064-.081-.189-.234-.273-.339a6.752,6.752,0,0,1-.441-.657,10.132,10.132,0,0,1-1.245-3.344c-.138-.533-.331-1.376-.415-1.8-.046-.2-.109-.513-.149-.7-.184-.83-.353-1.736-.5-2.667-.039-.258-.109-.656-.149-.889-.08-.435-.174-1.092-.3-2.095C.968,51.6.912,51.187.882,51S.8,50.311.758,49.9s-.1-.909-.124-1.1C.588,48.5.5,47.534.386,46.07c-.025-.292-.065-.949-.094-1.461s-.08-1.2-.1-1.523c-.069-.8-.143-3.112-.178-5.694-.034-2.069.03-5.868.129-7.641.129-2.392.387-5.783.49-6.562.031-.212.09-.724.13-1.143s.089-.83.1-.91.066-.491.12-.91c.109-.856.232-1.7.421-2.858.194-1.2.5-2.848.571-3.091.025-.08.064-.292.095-.465s.089-.44.129-.592.109-.428.149-.614c.263-1.109.63-2.463.714-2.625.025-.047.1-.237.182-.423A7.471,7.471,0,0,1,5.776,6.394,11.041,11.041,0,0,1,9.784,4.726c.03,0,.262-.052.52-.1s.65-.131.869-.178c.787-.161,2.181-.4,3-.521.232-.034.6-.093.817-.127s.556-.084.745-.105.535-.072.768-.106c1.1-.161,3.735-.444,5.5-.592.42-.034.991-.081,1.264-.106,1.086-.092,2.628-.2,4.041-.27,1.22-.064,2.218-.114,3.122-.153,1.49-.133,3.017-.243,4.548-.326.1,0,.87-.045,1.724-.089s2.152-.116,2.877-.157c2.613-.143,7.229-.355,9.94-.46.772-.03,1.989-.082,2.711-.112s1.841-.075,2.466-.094,1.772-.063,2.546-.093C60.909.993,69.618.743,75.484.612,76.88.582,78.77.541,79.673.519c3.6-.082,8.709-.175,13.39-.239,10.121-.141,15.643-.2,23.169-.242,12.519-.071,32.7-.038,43.624.07,5.652.057,15.872.191,19.552.262,1.085.018,2.859.052,3.944.07s2.711.056,3.613.079,2.76.063,4.109.093C195.921.721,198.3.777,198.8.8c.279.015,1.609.056,2.958.093,6.718.194,17.038.576,20.21.75q1.105.056,2.217.109c2.613.123,3.83.183,4.437.224q1.312.077,2.63.15c1.782.1,3.424.213,4.957.344,1.7.074,3.877.186,4.772.25.327.021.863.059,1.191.08s.817.064,1.091.089.833.072,1.239.106c1.462.123,2.182.186,2.331.212.083.016.485.064.893.105,2.027.22,5.142.653,6.1.851.223.042.446.083.669.123.789.14,1.156.208,1.34.254.264.057.528.114.793.169a11.23,11.23,0,0,1,3.8,1.452,9.139,9.139,0,0,1,1.794,1.6c.169.219.328.419.347.444a10.427,10.427,0,0,1,.8,1.523c.035.093.08.207.1.255a10.092,10.092,0,0,1,.357,1.186c.054.207.144.55.2.762.386,1.5.837,3.708,1.08,5.291.055.348.11.687.124.746.035.132.194,1.248.323,2.26.053.419.109.808.123.867s.061.441.1.847.084.817.1.91.069.674.124,1.292.119,1.367.149,1.671.07.961.1,1.461.073,1.206.1,1.566c.222,3.175.222,11.253,0,14.33-.029.347-.08,1.206-.124,1.905s-.093,1.43-.125,1.63-.07.672-.1,1.058-.075.868-.1,1.079-.078.724-.118,1.143-.1.876-.124,1.017-.085.529-.124.868c-.08.685-.258,1.985-.3,2.18-.013.068-.069.394-.124.719-.247,1.482-.521,2.934-.566,3.027-.014.034-.059.233-.1.444-.159.826-.6,2.574-.828,3.314a8.414,8.414,0,0,1-.59,1.428,2.057,2.057,0,0,0-.119.224,2.781,2.781,0,0,1-.253.415,1.6,1.6,0,0,0-.173.263,1.465,1.465,0,0,1-.189.241c-.1.114-.219.258-.263.317a9,9,0,0,1-1.082.99,5.462,5.462,0,0,1-.916.6,1.382,1.382,0,0,0-.218.136,14.993,14.993,0,0,1-1.869.753q-.249.073-.5.148c-.134.052-.878.212-1.736.377-.381.076-.773.156-.867.178-.229.05-1.666.3-2.753.466-.992.156-2.727.381-3.991.52-.342.038-.864.1-1.166.136-1.056.126-4.174.385-6.3.524l-1.244.078c-1.414.154-3.056.32-3.785.375-.548.042-1.1.086-1.644.131-.441.045-2.908.186-5.749.332-1.267.067-2.565.138-2.875.157-.757.044-5.521.261-9.12.41-3.286.138-9.038.337-13.227.46-1.132.034-2.859.086-3.86.12-3.5.112-13.837.34-20.868.463-5.488.093-6.771.112-10.269.149-2.037.023-4.88.053-6.327.074-5.767.077-17.014.115-28.281.115S110.826,72.094,104.977,72.017Z" transform="translate(394.958 401.102)" fill="#fff"/>
      <path id="União_3" data-name="União 3" d="M100.417,60.459c-1.384-.016-4.1-.043-6.052-.063s-4.417-.047-5.5-.063c-7.231-.1-8.739-.129-10.217-.16l-4.871-.094c-4.935-.094-12.8-.275-14.7-.342-.518-.018-1.682-.053-2.593-.078-2.419-.069-6.272-.192-8.252-.263-3.442-.125-8-.308-8.722-.344-.3-.016-1.54-.075-2.75-.132-2.783-.126-5.092-.241-5.5-.279-.173-.016-.6-.044-.943-.066-1.014-.06-2.767-.21-4.247-.353-2.177-.117-2.631-.145-3.076-.18-.275-.021-.935-.067-1.471-.107-1.488-.107-3.861-.313-4.435-.388-.156-.021-.508-.061-.782-.088-.73-.078-1.894-.217-2.491-.3-1.04-.143-2.415-.349-2.632-.391-.09-.018-.466-.086-.831-.149-.839-.143-1.536-.273-1.66-.317-.052-.017-.179-.05-.284-.075A11.5,11.5,0,0,1,6.36,55.5a.269.269,0,0,0-.1-.053.82.82,0,0,1-.21-.1c-.09-.053-.227-.128-.3-.167a7.49,7.49,0,0,1-1.469-1.12l-.262-.285a5.822,5.822,0,0,1-.422-.551A7.907,7.907,0,0,1,2.4,50.422c-.132-.447-.317-1.156-.4-1.51-.043-.168-.1-.431-.142-.586-.176-.7-.337-1.458-.475-2.239-.038-.216-.1-.551-.143-.747-.076-.366-.166-.917-.285-1.759-.037-.263-.09-.609-.118-.768s-.081-.576-.118-.924-.095-.763-.12-.921c-.043-.255-.128-1.062-.237-2.292-.024-.245-.061-.8-.09-1.226S.2,36.444.179,36.171C.113,35.5.042,33.559.009,31.39c-.033-1.737.028-4.926.123-6.415.123-2.008.37-4.855.47-5.509.029-.178.086-.608.124-.959s.085-.7.1-.764.063-.413.114-.764c.1-.718.222-1.425.4-2.4.185-1.005.474-2.391.545-2.595.023-.067.061-.245.091-.39s.085-.369.123-.5.1-.359.143-.516a22.947,22.947,0,0,1,.683-2.2c.024-.04.1-.2.175-.355A6.492,6.492,0,0,1,5.525,5.368a11.4,11.4,0,0,1,3.833-1.4c.028,0,.251-.043.5-.086s.622-.11.831-.149c.753-.135,2.087-.338,2.87-.437.222-.029.574-.078.781-.107s.532-.071.713-.088.511-.061.735-.089c1.057-.135,3.572-.373,5.266-.5.4-.029.948-.068,1.21-.089,1.038-.077,2.512-.167,3.864-.227,1.167-.054,2.122-.1,2.987-.129,1.425-.112,2.886-.2,4.351-.274.095,0,.832-.038,1.649-.075s2.058-.1,2.751-.132c2.5-.12,6.915-.3,9.509-.386.738-.025,1.9-.069,2.593-.094s1.761-.063,2.358-.079,1.7-.052,2.435-.078C58.263.834,66.593.624,72.2.514,73.54.488,75.348.454,76.212.436,79.654.367,84.542.289,89.02.235,98.7.116,103.984.066,111.183.032c11.975-.06,31.276-.032,41.73.059,5.407.048,15.183.16,18.7.22,1.037.015,2.734.043,3.773.059s2.593.047,3.457.066,2.64.053,3.93.078c4.635.091,6.914.138,7.386.156.267.013,1.539.047,2.829.078,6.427.163,16.3.483,19.332.63l2.121.091c2.5.1,3.664.154,4.245.188q1.256.065,2.516.126c1.7.083,3.275.179,4.742.289,1.629.062,3.708.156,4.564.21.313.017.826.05,1.139.067s.781.053,1.043.075.8.061,1.186.089c1.4.1,2.087.157,2.229.178.08.014.465.053.854.088,1.939.185,4.918.548,5.833.714.214.035.426.07.64.1.755.118,1.106.175,1.282.214.252.048.505.1.758.142a11.683,11.683,0,0,1,3.634,1.219,8.5,8.5,0,0,1,1.716,1.341c.161.184.313.352.332.373a8.451,8.451,0,0,1,.764,1.279,2.351,2.351,0,0,0,.1.214,7.723,7.723,0,0,1,.342,1c.052.174.138.461.189.64.37,1.261.8,3.113,1.034,4.442.053.292.106.576.119.626.033.111.186,1.048.309,1.9.052.352.1.679.118.728s.058.37.1.711.08.686.094.764.067.565.118,1.085.114,1.147.143,1.4.066.807.1,1.226.07,1.013.095,1.315a113.67,113.67,0,0,1,0,12.031c-.028.291-.077,1.013-.119,1.6s-.089,1.2-.119,1.368-.066.564-.094.889-.072.728-.1.906-.075.608-.113.959-.091.736-.119.854-.081.444-.118.728c-.076.575-.247,1.667-.285,1.83-.013.057-.066.331-.119.6-.236,1.244-.5,2.463-.541,2.541a3.432,3.432,0,0,0-.094.373c-.151.693-.569,2.161-.792,2.783a6.6,6.6,0,0,1-.564,1.2,1.669,1.669,0,0,0-.114.188,2.306,2.306,0,0,1-.243.348,1.369,1.369,0,0,0-.166.221,1.238,1.238,0,0,1-.181.2c-.094.1-.209.216-.251.266a8.345,8.345,0,0,1-1.035.831,5.349,5.349,0,0,1-.878.5,1.4,1.4,0,0,0-.209.114,15.485,15.485,0,0,1-1.788.632q-.239.061-.475.124c-.128.043-.84.178-1.66.317-.365.064-.74.131-.83.149-.218.042-1.594.249-2.633.391-.948.131-2.609.32-3.818.436-.327.032-.826.082-1.115.114-1.01.106-3.994.323-6.024.44l-1.19.066c-1.353.129-2.923.269-3.621.314-.524.035-1.049.072-1.572.11-.423.038-2.782.157-5.5.279-1.212.056-2.453.116-2.75.132-.724.037-5.282.219-8.724.344-3.143.116-8.645.283-12.652.386-1.084.029-2.736.072-3.693.1-3.348.094-13.236.285-19.962.389-5.249.078-6.476.094-9.822.125-1.949.019-4.669.044-6.052.063-5.517.064-16.275.1-27.053.1S106.012,60.524,100.417,60.459Z" transform="translate(400.301 407.335)" fill="#0e295b"/>
      <path id="Caminho_1652" data-name="Caminho 1652" d="M15.308-17.5,8.826,0H6.567L.22-17.5H2.5L7.349-3.625A8.241,8.241,0,0,1,7.7-2.075h.049a7.6,7.6,0,0,1,.4-1.575L13.1-17.5ZM21.191.293a5.8,5.8,0,0,1-4.425-1.752A6.488,6.488,0,0,1,15.112-6.1a6.759,6.759,0,0,1,1.721-4.919,6.188,6.188,0,0,1,4.651-1.77,5.606,5.606,0,0,1,4.364,1.721A6.825,6.825,0,0,1,27.417-6.3a6.715,6.715,0,0,1-1.691,4.791A5.924,5.924,0,0,1,21.191.293Zm.146-11.4A3.808,3.808,0,0,0,18.286-9.8a5.389,5.389,0,0,0-1.123,3.619,5.1,5.1,0,0,0,1.135,3.5,3.858,3.858,0,0,0,3.04,1.282,3.66,3.66,0,0,0,2.985-1.257,5.456,5.456,0,0,0,1.044-3.577,5.55,5.55,0,0,0-1.044-3.613A3.644,3.644,0,0,0,21.338-11.108ZM32.617,0h-2V-18.506h2Zm9.851-.122A3.86,3.86,0,0,1,40.6.269q-3.284,0-3.284-3.662v-7.4H35.168V-12.5h2.148v-3.052l2-.647v3.7h3.149v1.709H39.319v7.043a2.92,2.92,0,0,0,.427,1.794,1.7,1.7,0,0,0,1.416.537,2.1,2.1,0,0,0,1.306-.415ZM54.089,0h-2V-1.953h-.049A4.191,4.191,0,0,1,48.193.293,4.109,4.109,0,0,1,45.27-.7,3.426,3.426,0,0,1,44.214-3.32q0-3.5,4.126-4.077l3.748-.525q0-3.186-2.576-3.186A6.154,6.154,0,0,0,45.435-9.57v-2.051a7.746,7.746,0,0,1,4.248-1.172q4.407,0,4.407,4.663Zm-2-6.323-3.015.415a4.9,4.9,0,0,0-2.1.69,1.989,1.989,0,0,0-.708,1.752,1.908,1.908,0,0,0,.653,1.5,2.524,2.524,0,0,0,1.74.58,3.213,3.213,0,0,0,2.46-1.044,3.729,3.729,0,0,0,.97-2.643Zm12.292-4.15a2.448,2.448,0,0,0-1.514-.4,2.555,2.555,0,0,0-2.142,1.208,5.587,5.587,0,0,0-.861,3.3V0h-2V-12.5h2v2.576h.049a4.365,4.365,0,0,1,1.306-2.057,2.978,2.978,0,0,1,1.965-.739,3.268,3.268,0,0,1,1.2.171ZM82.349,0h-2V-1.953H80.3A4.191,4.191,0,0,1,76.453.293,4.109,4.109,0,0,1,73.529-.7,3.426,3.426,0,0,1,72.473-3.32q0-3.5,4.126-4.077l3.748-.525q0-3.186-2.576-3.186A6.154,6.154,0,0,0,73.694-9.57v-2.051a7.746,7.746,0,0,1,4.248-1.172q4.407,0,4.407,4.663Zm-2-6.323-3.015.415a4.9,4.9,0,0,0-2.1.69,1.989,1.989,0,0,0-.708,1.752,1.908,1.908,0,0,0,.653,1.5,2.524,2.524,0,0,0,1.74.58,3.213,3.213,0,0,0,2.46-1.044,3.729,3.729,0,0,0,.97-2.643Zm11,6.616A5.8,5.8,0,0,1,86.92-1.459,6.488,6.488,0,0,1,85.266-6.1a6.759,6.759,0,0,1,1.721-4.919,6.188,6.188,0,0,1,4.651-1.77A5.606,5.606,0,0,1,96-11.072,6.825,6.825,0,0,1,97.571-6.3,6.715,6.715,0,0,1,95.88-1.508,5.924,5.924,0,0,1,91.345.293Zm.146-11.4A3.808,3.808,0,0,0,88.44-9.8a5.389,5.389,0,0,0-1.123,3.619,5.1,5.1,0,0,0,1.135,3.5,3.858,3.858,0,0,0,3.04,1.282,3.66,3.66,0,0,0,2.985-1.257A5.456,5.456,0,0,0,95.52-6.226a5.55,5.55,0,0,0-1.044-3.613A3.644,3.644,0,0,0,91.492-11.108ZM125.732,0h-2.039V-11.743q0-1.392.171-3.406h-.049a10.888,10.888,0,0,1-.525,1.7L117.31,0h-1l-5.969-13.354a10.463,10.463,0,0,1-.525-1.794h-.049q.1,1.05.1,3.43V0h-1.978V-17.5h2.71L115.967-5.3a15.63,15.63,0,0,1,.806,2.1h.073q.525-1.44.842-2.148L123.169-17.5h2.563Zm14.38-5.75h-8.826a4.675,4.675,0,0,0,1.123,3.223,3.872,3.872,0,0,0,2.954,1.135,6.142,6.142,0,0,0,3.882-1.392V-.9a7.255,7.255,0,0,1-4.358,1.2,5.283,5.283,0,0,1-4.163-1.7A6.97,6.97,0,0,1,129.211-6.2a6.835,6.835,0,0,1,1.654-4.755,5.3,5.3,0,0,1,4.108-1.837,4.7,4.7,0,0,1,3.8,1.587A6.616,6.616,0,0,1,140.112-6.8Zm-2.051-1.7a4.073,4.073,0,0,0-.836-2.7,2.849,2.849,0,0,0-2.289-.964,3.234,3.234,0,0,0-2.4,1.013,4.6,4.6,0,0,0-1.221,2.649ZM153.516,0h-2V-7.129q0-3.979-2.905-3.979a3.151,3.151,0,0,0-2.484,1.129,4.185,4.185,0,0,0-.983,2.85V0h-2V-12.5h2v2.075h.049a4.512,4.512,0,0,1,4.1-2.368,3.824,3.824,0,0,1,3.137,1.324,5.9,5.9,0,0,1,1.086,3.827ZM167.4,0h-2V-1.978h-.049A4.111,4.111,0,0,1,161.487.293q-4.468,0-4.468-5.322V-12.5h1.99v7.153q0,3.955,3.027,3.955a3.063,3.063,0,0,0,2.411-1.08,4.134,4.134,0,0,0,.946-2.826v-7.2h2Z" transform="translate(462.387 446.145)" fill="#fff"/>
    </g>
    <g id="Grupo_1892" data-name="Grupo 1892" transform="translate(875 13911.431)">
      <g id="Grupo_1891" data-name="Grupo 1891" transform="translate(0 0)" clip-path="url(#clip-path)">
        <line id="Linha_246" data-name="Linha 246" x2="2.57" transform="translate(4.376 7.971)" fill="none" stroke="#fff" stroke-linecap="round" stroke-linejoin="round" stroke-width="4"/>
        <path id="Caminho_1644" data-name="Caminho 1644" d="M9.4,18.883h9.642a9.618,9.618,0,0,1,0,19.235H4.252" transform="translate(-2.457 -10.912)" fill="none" stroke="#fff" stroke-linecap="round" stroke-linejoin="round" stroke-width="4"/>
        <path id="Caminho_1645" data-name="Caminho 1645" d="M14.776,4.252,5.235,10.613,14.223,16.6" transform="translate(-3.025 -2.457)" fill="none" stroke="#fff" stroke-linecap="round" stroke-linejoin="round" stroke-width="4"/>
      </g>
    </g>
  </g>
</svg>
