<svg xmlns="http://www.w3.org/2000/svg" width="209.387" height="76.074" viewBox="0 0 209.387 76.074">
  <g id="Grupo_1624" data-name="Grupo 1624" transform="translate(-855.307 -942)">
    <g id="Grupo_1598" data-name="Grupo 1598" transform="translate(0 11)">
      <g id="Grupo_1595" data-name="Grupo 1595" transform="translate(761.307 260)">
        <g id="Grupo_1035" data-name="Grupo 1035" transform="translate(2018.387 1645.074) rotate(180)">
          <g id="Grupo_1005" data-name="Grupo 1005" transform="translate(1715 898)">
            <path id="Caminho_466" data-name="Caminho 466" d="M101.34,10.319c-6.028.052-10.45.129-18.556.311-3.749.081-7.842.2-10.724.306-.723.029-2.237.081-3.355.12-4.7.167-11.673.487-14.607.669-.62.038-1.527.091-2.039.12s-1.4.081-1.975.12-1.553.105-2.17.143c-2.173.134-5.869.407-7.961.588-.58.053-1.62.143-2.3.2s-1.3.11-1.381.115a56.217,56.217,0,0,0-10.634,1.884,16.226,16.226,0,0,0-6.724,3.572c-.21.21-.422.425-.486.478a21.865,21.865,0,0,0-1.9,2.965c-.1.21-.288.521-.394.693s-.249.473-.342.669a3.36,3.36,0,0,1-.251.526,32.838,32.838,0,0,0-1.514,3.491c-.5,1.31-.829,2.262-1.118,3.228-.145.473-.29.937-.316,1.028s-.159.555-.277,1.028-.263,1.052-.343,1.291a72.51,72.51,0,0,0-1.3,7.412,67.562,67.562,0,0,0-.342,8.631,54.89,54.89,0,0,0,.473,6.431c.067.368.2,1.143.277,1.721s.184,1.32.251,1.649c.3,1.654.54,2.74.657,3.084.067.211.224.77.329,1.238s.263,1.028.329,1.243.224.679.328,1.033a22.316,22.316,0,0,0,.79,2.367c.106.263.29.712.394,1a25.513,25.513,0,0,0,1.316,3.013c.106.21.277.564.4.789.224.478.737,1.43,1.106,2.032a9.68,9.68,0,0,0,3.3,3.778,12.64,12.64,0,0,0,1.171.741c.223.12.553.291.723.383a25.8,25.8,0,0,0,4.081,1.506c.2.052.578.152.827.224a3.709,3.709,0,0,0,.58.134,1.155,1.155,0,0,1,.288.072,57.513,57.513,0,0,0,5.685.975c.29.034.645.076.79.1.343.057,2.276.234,4.606.425,1.014.086,2.053.177,2.3.2.606.057,4.421.334,7.3.526,1.657.11,4.883.3,6.908.4.763.038,1.738.09,2.171.119,1.592.1,8.172.378,12.3.521,1.487.053,3.316.115,4.079.143,1.237.048,2.5.086,8.553.244.908.024,2.975.067,4.606.1s3.908.071,5.067.1c9.369.2,36.161.2,45.4,0,1.159-.029,3.435-.067,5.067-.1,2.8-.048,3.829-.072,8.224-.192,5.632-.157,13.911-.45,16.713-.593.8-.043,2.184-.11,3.092-.153,3.355-.157,7.961-.411,10.593-.588,2.883-.192,6.7-.469,7.3-.526.249-.024,1.288-.115,2.3-.2,2.276-.187,4.251-.368,4.606-.425q.656-.086,1.316-.167c1.079-.129,4.659-.746,4.961-.851.092-.033.355-.1.579-.153a22.559,22.559,0,0,0,2.435-.674,27.666,27.666,0,0,0,2.869-1.119c.118-.067.434-.229.7-.358a2.894,2.894,0,0,0,.5-.273,2.807,2.807,0,0,1,.46-.3,4.275,4.275,0,0,0,.673-.469,2.8,2.8,0,0,1,.315-.253A8.782,8.782,0,0,0,212,77.2a28.681,28.681,0,0,0,2.2-3.744,2.9,2.9,0,0,1,.263-.5,30.046,30.046,0,0,0,1.5-3.419c.145-.368.29-.737.329-.813.106-.22.579-1.688.79-2.463a7.349,7.349,0,0,1,.328-.98,7.3,7.3,0,0,0,.329-1.148c.106-.473.251-1.057.316-1.291a11.732,11.732,0,0,0,.276-1.219c.079-.435.2-.97.263-1.2a14.972,14.972,0,0,0,.329-1.841c.119-.789.251-1.76.329-2.152a73.973,73.973,0,0,0,0-16.186c-.067-.407-.184-1.2-.263-1.769s-.2-1.31-.264-1.65-.249-1.191-.395-1.888-.29-1.354-.329-1.458-.157-.569-.263-1.028a7.474,7.474,0,0,0-.263-.956c-.039-.067-.184-.507-.329-.98-.341-1.143-.763-2.4-.855-2.553-.039-.067-.184-.45-.329-.842a38.194,38.194,0,0,0-2.869-5.977c-.145-.239-.381-.626-.526-.861a7.963,7.963,0,0,0-.947-1.339,2.906,2.906,0,0,1-.277-.287,13.929,13.929,0,0,0-2.119-1.721c-.053-.029-.473-.253-.922-.5a28.931,28.931,0,0,0-4.763-1.8,58.563,58.563,0,0,0-10.079-1.64q-1.054-.094-2.106-.192c-.487-.052-1.461-.129-3.554-.287q-.889-.068-1.776-.139c-2.54-.224-10.8-.712-16.186-.961-1.08-.048-2.145-.1-2.369-.119-.4-.029-2.3-.1-6.185-.239-1.08-.038-2.567-.1-3.29-.12s-2.027-.071-2.894-.1-2.29-.067-3.159-.09c-2.948-.091-11.132-.263-15.66-.335-8.752-.139-24.912-.182-34.938-.09Z" transform="translate(-10.305 -10.271)" fill="#fff"/>
            <g id="Grupo_1004" data-name="Grupo 1004" transform="translate(6 6)">
              <path id="Caminho_465" data-name="Caminho 465" d="M95.872,10.311c-5.666.043-9.822.108-17.441.259-3.524.068-7.371.168-10.08.255-.68.024-2.1.068-3.154.1-4.416.14-10.972.407-13.729.559-.582.032-1.436.076-1.917.1s-1.312.068-1.856.1-1.459.088-2.04.12c-2.042.112-5.517.339-7.483.491-.545.044-1.522.12-2.165.168s-1.224.092-1.3.1a58.89,58.89,0,0,0-10,1.572,15.92,15.92,0,0,0-6.32,2.981c-.2.176-.4.355-.457.4a18.177,18.177,0,0,0-1.782,2.475c-.1.175-.271.435-.37.579s-.234.395-.321.559a2.683,2.683,0,0,1-.236.439A25.94,25.94,0,0,0,13.8,24.475c-.47,1.094-.779,1.888-1.05,2.694-.136.395-.273.782-.3.858s-.149.463-.26.858-.247.878-.322,1.078A54.425,54.425,0,0,0,10.65,36.15a50.124,50.124,0,0,0-.321,7.2,40.794,40.794,0,0,0,.444,5.368c.063.307.186.954.26,1.437s.173,1.1.236,1.377a24.445,24.445,0,0,0,.618,2.574c.063.176.21.643.31,1.034s.247.858.31,1.038.21.567.308.862a17.23,17.23,0,0,0,.743,1.976c.1.219.273.595.37.838a20.149,20.149,0,0,0,1.237,2.515c.1.175.26.471.372.658.21.4.693,1.193,1.039,1.7a8.486,8.486,0,0,0,3.1,3.153,12.194,12.194,0,0,0,1.1.619c.21.1.519.243.68.319A26.254,26.254,0,0,0,25.3,70.075c.184.043.544.127.778.187a3.865,3.865,0,0,0,.545.112,1.2,1.2,0,0,1,.271.06c.483.152,3.885.674,5.343.814.273.028.607.064.743.084.322.048,2.139.2,4.329.355.953.072,1.93.147,2.164.168.569.048,4.156.279,6.865.439,1.558.092,4.589.247,6.493.335.717.032,1.633.076,2.041.1,1.5.084,7.682.316,11.565.435,1.4.044,3.117.1,3.834.12,1.163.04,2.35.072,8.04.2.853.02,2.8.056,4.329.08s3.674.06,4.763.08c8.806.164,33.989.164,42.672,0,1.089-.024,3.229-.056,4.763-.08,2.634-.04,3.6-.06,7.73-.16,5.293-.131,13.075-.375,15.709-.495.754-.036,2.053-.092,2.907-.128,3.154-.131,7.483-.343,9.957-.491,2.709-.16,6.3-.391,6.866-.439.234-.02,1.211-.1,2.164-.168,2.139-.156,4-.307,4.329-.355q.616-.072,1.237-.14c1.014-.108,4.379-.623,4.663-.711.087-.028.334-.087.544-.128a23.334,23.334,0,0,0,2.289-.563,28.043,28.043,0,0,0,2.7-.934c.111-.056.408-.191.655-.3a2.832,2.832,0,0,0,.47-.228,2.688,2.688,0,0,1,.433-.248,4.059,4.059,0,0,0,.632-.391,2.605,2.605,0,0,1,.3-.211,7.836,7.836,0,0,0,1.471-1.345,23.491,23.491,0,0,0,2.066-3.125,2.343,2.343,0,0,1,.247-.419,23.784,23.784,0,0,0,1.41-2.854c.136-.307.273-.615.31-.679.1-.184.544-1.409.743-2.055a5.678,5.678,0,0,1,.308-.818,5.591,5.591,0,0,0,.31-.958c.1-.395.236-.882.3-1.078a8.87,8.87,0,0,0,.259-1.018c.074-.363.186-.81.247-1a11.243,11.243,0,0,0,.31-1.536c.112-.659.236-1.469.31-1.8a54.875,54.875,0,0,0,0-13.51c-.063-.34-.173-1.006-.247-1.477s-.186-1.094-.248-1.377-.234-.994-.371-1.576-.273-1.13-.31-1.217-.147-.475-.247-.858a5.71,5.71,0,0,0-.247-.8,8.6,8.6,0,0,1-.31-.818,21.4,21.4,0,0,0-.8-2.131c-.037-.056-.173-.375-.31-.7a30.474,30.474,0,0,0-2.7-4.989c-.136-.2-.358-.523-.494-.718a6.73,6.73,0,0,0-.89-1.118,2.59,2.59,0,0,1-.26-.24,12.923,12.923,0,0,0-1.992-1.437c-.05-.024-.444-.211-.866-.419a29.391,29.391,0,0,0-4.477-1.5,61.44,61.44,0,0,0-9.474-1.369q-.991-.078-1.979-.16c-.458-.043-1.374-.108-3.34-.239l-1.67-.116c-2.387-.187-10.155-.595-15.213-.8-1.016-.04-2.016-.084-2.227-.1-.372-.024-2.165-.084-5.813-.2-1.016-.032-2.413-.08-3.093-.1s-1.905-.06-2.721-.084-2.153-.056-2.969-.076c-2.771-.076-10.464-.219-14.719-.28-8.226-.116-23.415-.152-32.839-.076Z" transform="translate(-10.305 -10.271)" fill="#ed770c"/>
            </g>
          </g>
        </g>
        <path id="Caminho_1116" data-name="Caminho 1116" d="M11.84.416A11.549,11.549,0,0,1,6.112-.944,9.511,9.511,0,0,1,2.336-4.768,11.984,11.984,0,0,1,.992-10.592,12.477,12.477,0,0,1,2.368-16.56a10.019,10.019,0,0,1,3.84-4.016,11.08,11.08,0,0,1,5.7-1.44,11.578,11.578,0,0,1,2.88.352,8,8,0,0,1,2.368.992v4.416a6.941,6.941,0,0,0-2.144-1.056,8.656,8.656,0,0,0-2.56-.384A5.986,5.986,0,0,0,7.84-15.872a7.138,7.138,0,0,0-1.7,5.056A7.152,7.152,0,0,0,7.872-5.792,5.983,5.983,0,0,0,12.512-3.9a7.727,7.727,0,0,0,5.024-1.632v4.448a7.316,7.316,0,0,1-2.48,1.1A12.591,12.591,0,0,1,11.84.416Zm15.808,0A8.309,8.309,0,0,1,23.36-.656,7.3,7.3,0,0,1,20.528-3.7,10.017,10.017,0,0,1,19.52-8.32a10.116,10.116,0,0,1,1.008-4.64,7.348,7.348,0,0,1,2.848-3.072,8.235,8.235,0,0,1,4.272-1.088,8.309,8.309,0,0,1,4.288,1.072,7.3,7.3,0,0,1,2.832,3.04,10.017,10.017,0,0,1,1.008,4.624,10.116,10.116,0,0,1-1.008,4.64A7.38,7.38,0,0,1,31.936-.672,8.213,8.213,0,0,1,27.648.416Zm0-3.936A2.681,2.681,0,0,0,30-4.784a6.3,6.3,0,0,0,.848-3.536A6.452,6.452,0,0,0,30-11.9a2.673,2.673,0,0,0-2.352-1.28A2.681,2.681,0,0,0,25.3-11.92a6.3,6.3,0,0,0-.848,3.536A6.452,6.452,0,0,0,25.3-4.8,2.673,2.673,0,0,0,27.648-3.52ZM38.3,0V-16.7H42.56l.256,1.92a5.666,5.666,0,0,1,4.832-2.336,5.292,5.292,0,0,1,4.192,1.792,6.933,6.933,0,0,1,1.568,4.736V0H48.544V-9.824q0-3.264-2.624-3.264a2.488,2.488,0,0,0-2.016.88,3.6,3.6,0,0,0-.736,2.384V0ZM57.7,0V-12.992h-2.56V-16.7H57.7v-.128a6.562,6.562,0,0,1,1.76-4.88,6.608,6.608,0,0,1,4.864-1.744,7,7,0,0,1,1.312.128,4.781,4.781,0,0,1,1.088.32v3.776a4.193,4.193,0,0,0-1.888-.384q-2.272,0-2.272,2.784v.128h3.648v3.712H62.56V0ZM68.672,0V-16.7h4.864V0ZM71.1-18.656a2.777,2.777,0,0,1-2-.784,2.615,2.615,0,0,1-.816-1.968,2.615,2.615,0,0,1,.816-1.968,2.777,2.777,0,0,1,2-.784,2.763,2.763,0,0,1,2.016.784,2.641,2.641,0,0,1,.8,1.968,2.641,2.641,0,0,1-.8,1.968A2.763,2.763,0,0,1,71.1-18.656ZM76.8,0V-16.7h4.256l.32,2.4a5.243,5.243,0,0,1,1.616-1.984,3.6,3.6,0,0,1,2.16-.736,3.2,3.2,0,0,1,1.28.224v4.512a3.046,3.046,0,0,0-1.376-.288,3.086,3.086,0,0,0-2.48,1.072,4.426,4.426,0,0,0-.912,2.96V0ZM88.96,0V-16.7h4.256l.224,1.7a5.382,5.382,0,0,1,1.936-1.568,5.741,5.741,0,0,1,2.512-.544,4.908,4.908,0,0,1,2.64.7A4.894,4.894,0,0,1,102.3-14.5a6.052,6.052,0,0,1,2.16-1.936,6.216,6.216,0,0,1,2.96-.688,4.894,4.894,0,0,1,3.856,1.648,6.4,6.4,0,0,1,1.456,4.4V0h-4.864V-10.3q0-2.784-2.208-2.784a2.173,2.173,0,0,0-1.728.736,3.02,3.02,0,0,0-.64,2.048V0H98.432V-10.3q0-2.784-2.24-2.784a2.173,2.173,0,0,0-1.728.736,3.02,3.02,0,0,0-.64,2.048V0Zm31.68.416a5.775,5.775,0,0,1-3.968-1.328,4.521,4.521,0,0,1-1.5-3.568,5.143,5.143,0,0,1,2.208-4.432,10.579,10.579,0,0,1,6.24-1.584q.352,0,.7.016t.7.048q-.32-2.816-3.616-2.816a7.971,7.971,0,0,0-4.736,1.5v-3.808a9.235,9.235,0,0,1,5.536-1.568,7.524,7.524,0,0,1,5.5,1.888,7.246,7.246,0,0,1,1.92,5.408V0h-3.968l-.256-1.76a4.908,4.908,0,0,1-2,1.6A6.6,6.6,0,0,1,120.64.416Zm4.416-7.84q-.48-.032-1.216-.032a6.058,6.058,0,0,0-3.024.624,1.955,1.955,0,0,0-1.072,1.776,2,2,0,0,0,.64,1.568,2.439,2.439,0,0,0,1.7.576,2.822,2.822,0,0,0,2.112-.9,3.059,3.059,0,0,0,.864-2.208ZM132.8,0V-16.7h4.256l.32,2.4a5.243,5.243,0,0,1,1.616-1.984,3.6,3.6,0,0,1,2.16-.736,3.2,3.2,0,0,1,1.28.224v4.512a3.046,3.046,0,0,0-1.376-.288,3.086,3.086,0,0,0-2.48,1.072,4.426,4.426,0,0,0-.912,2.96V0Z" transform="translate(125 719.037)" fill="#fff"/>
      </g>
    </g>
  </g>
</svg>
