<svg xmlns="http://www.w3.org/2000/svg" width="171.809" height="64.523" viewBox="0 0 171.809 64.523">
  <g id="Grupo_1823" data-name="Grupo 1823" transform="translate(-142.318 -751.727)">
    <g id="Grupo_1822" data-name="Grupo 1822">
      <g id="Grupo_1638" data-name="Grupo 1638" transform="translate(142.318 751.727)">
        <path id="União_4" data-name="União 4" d="M67.675,64.42c-.933-.017-2.766-.046-4.079-.067s-2.976-.05-3.707-.067c-4.873-.11-5.889-.137-6.885-.171l-3.283-.1c-3.326-.1-8.623-.293-9.9-.364-.35-.02-1.134-.057-1.747-.083-1.631-.074-4.227-.2-5.561-.281-2.32-.133-5.391-.328-5.878-.367-.2-.017-1.038-.08-1.854-.14-1.876-.134-3.432-.257-3.708-.3-.117-.017-.4-.047-.636-.071-.683-.064-1.864-.224-2.862-.376-1.467-.124-1.773-.155-2.073-.192-.186-.023-.631-.072-.992-.114-1-.114-2.6-.334-2.988-.413-.105-.022-.343-.065-.527-.094-.492-.083-1.276-.232-1.678-.318-.7-.152-1.628-.372-1.774-.417-.061-.02-.315-.091-.56-.159a10.91,10.91,0,0,1-1.119-.337c-.035-.019-.121-.053-.191-.079a6.206,6.206,0,0,1-1.382-.772c-.026-.03-.057-.057-.069-.057a.494.494,0,0,1-.142-.106c-.06-.057-.153-.136-.2-.178a6.175,6.175,0,0,1-.991-1.193c-.042-.073-.122-.209-.176-.3a6.482,6.482,0,0,1-.284-.588,11.369,11.369,0,0,1-.8-2.991c-.089-.477-.214-1.231-.268-1.609-.03-.178-.071-.459-.1-.625-.119-.743-.227-1.553-.32-2.386-.026-.231-.071-.587-.1-.8-.052-.389-.112-.977-.192-1.874-.024-.281-.06-.649-.079-.818S.514,45,.489,44.633s-.064-.813-.08-.981C.379,43.38.322,42.52.249,41.21.233,40.949.207,40.361.188,39.9S.137,38.832.121,38.541c-.044-.72-.092-2.783-.115-5.094C-.016,31.6.025,28.2.089,26.612c.083-2.14.249-5.173.316-5.87.02-.189.058-.648.084-1.022s.057-.743.066-.814.043-.44.077-.814c.07-.765.15-1.519.272-2.557.125-1.071.32-2.548.368-2.765.016-.072.042-.261.061-.416s.057-.393.083-.53.07-.383.1-.549c.169-.992.406-2.2.46-2.348.016-.042.067-.212.118-.379A6.749,6.749,0,0,1,3.724,5.72,6.25,6.25,0,0,1,6.307,4.228c.019,0,.169-.046.335-.091s.419-.117.56-.159c.507-.144,1.406-.36,1.934-.466.149-.031.387-.083.526-.114s.358-.076.481-.094.345-.065.5-.1c.712-.144,2.407-.4,3.548-.53.271-.03.639-.073.815-.1.7-.082,1.694-.178,2.6-.241.787-.058,1.43-.1,2.013-.137.961-.119,1.945-.218,2.932-.292.064,0,.561-.04,1.111-.079s1.387-.1,1.854-.14c1.685-.127,4.66-.318,6.409-.411.5-.026,1.282-.074,1.747-.1s1.187-.067,1.59-.084,1.143-.056,1.641-.083C39.266.888,44.88.665,48.662.548c.9-.027,2.119-.064,2.7-.083,2.32-.073,5.614-.157,8.632-.214C66.519.124,70.079.07,74.931.034,83-.03,96.008,0,103.054.1c3.644.051,10.232.171,12.6.235.7.016,1.843.046,2.543.063s1.748.05,2.329.071,1.779.056,2.649.083c3.124.1,4.659.147,4.978.167.18.014,1.037.05,1.907.083,4.331.174,10.984.515,13.029.671q.713.05,1.43.1c1.685.11,2.469.164,2.86.2q.846.069,1.7.134c1.149.089,2.207.19,3.2.308,1.1.066,2.5.166,3.076.224.211.019.557.053.768.072s.527.057.7.08.537.065.8.1c.943.11,1.407.167,1.5.189.054.015.313.057.575.094,1.307.2,3.314.584,3.932.761.144.037.287.075.431.11.508.126.745.186.863.228.17.051.341.1.511.151a6.207,6.207,0,0,1,2.449,1.3,7.109,7.109,0,0,1,1.157,1.428c.109.2.211.375.224.4A10.934,10.934,0,0,1,169.78,8.7c.022.083.051.185.067.228.035.087.14.576.23,1.06.035.185.093.492.128.682.249,1.344.54,3.317.7,4.733.035.311.071.614.08.667.023.118.125,1.116.208,2.022.034.375.07.723.079.776s.039.394.065.757.054.731.064.814.045.6.08,1.156.077,1.222.1,1.5.045.859.065,1.307.047,1.079.064,1.4c.143,2.84.143,10.066,0,12.819-.019.31-.051,1.079-.08,1.7s-.06,1.279-.08,1.458-.045.6-.064.947-.048.776-.067.965-.05.648-.076,1.022-.061.784-.08.909-.055.473-.08.776c-.052.613-.166,1.776-.192,1.95-.009.061-.045.352-.08.644-.159,1.325-.336,2.624-.365,2.708-.009.03-.038.208-.063.4-.1.739-.384,2.3-.534,2.965a9.306,9.306,0,0,1-.38,1.277c-.013.019-.044.113-.077.2a2.762,2.762,0,0,1-.163.371,1.574,1.574,0,0,0-.112.235,1.371,1.371,0,0,1-.122.216c-.064.1-.141.231-.169.284a7.113,7.113,0,0,1-.7.886,3.663,3.663,0,0,1-.591.534.911.911,0,0,0-.141.122,8.392,8.392,0,0,1-1.205.674q-.16.065-.319.132a11.17,11.17,0,0,1-1.119.337c-.246.068-.5.139-.559.159-.147.045-1.074.265-1.775.417-.639.139-1.758.34-2.573.465-.221.034-.557.087-.751.122-.681.113-2.691.344-4.06.469l-.8.07c-.912.138-1.97.286-2.44.335-.353.037-.707.077-1.06.117-.285.04-1.875.167-3.706.3-.817.06-1.653.124-1.854.14-.488.039-3.559.233-5.879.367-2.118.124-5.826.3-8.527.411-.73.03-1.843.076-2.488.107-2.256.1-8.921.3-13.453.414-3.538.083-4.365.1-6.62.134-1.313.02-3.146.047-4.078.067-3.718.069-10.968.1-18.232.1S71.446,64.489,67.675,64.42Z" transform="translate(0 0)" fill="#fff"/>
        <path id="União_3" data-name="União 3" d="M63.6,54.081c-.876-.014-2.6-.039-3.833-.056s-2.8-.042-3.484-.056c-4.579-.092-5.534-.115-6.47-.143l-3.085-.084c-3.126-.084-8.1-.246-9.307-.306-.328-.016-1.065-.048-1.642-.07-1.532-.062-3.972-.171-5.226-.236-2.18-.112-5.066-.275-5.524-.308-.189-.014-.975-.068-1.742-.118-1.763-.113-3.225-.216-3.484-.25-.11-.014-.378-.04-.6-.059-.642-.054-1.752-.188-2.689-.316-1.379-.1-1.666-.13-1.948-.161-.174-.019-.593-.06-.932-.1-.943-.1-2.445-.28-2.809-.347-.1-.019-.322-.054-.5-.079-.462-.07-1.2-.194-1.577-.267-.659-.128-1.53-.312-1.667-.35-.057-.016-.295-.077-.526-.133-.531-.128-.973-.245-1.051-.283-.033-.016-.114-.044-.18-.067a6.059,6.059,0,0,1-1.3-.648.159.159,0,0,0-.065-.048.467.467,0,0,1-.133-.089c-.057-.048-.144-.114-.189-.149a5.357,5.357,0,0,1-.931-1l-.166-.255a5.326,5.326,0,0,1-.267-.493A8.768,8.768,0,0,1,1.523,45.1c-.084-.4-.2-1.034-.252-1.351-.027-.15-.066-.385-.09-.525-.111-.623-.213-1.3-.3-2-.024-.194-.066-.493-.09-.668-.048-.327-.1-.82-.18-1.573-.023-.236-.057-.544-.075-.687S.483,37.781.46,37.47s-.06-.683-.076-.824C.357,36.418.3,35.7.234,34.6.219,34.377.2,33.884.177,33.5s-.048-.9-.064-1.144c-.041-.6-.086-2.337-.107-4.276-.021-1.554.018-4.406.078-5.738.078-1.8.234-4.343.3-4.928.019-.159.054-.544.079-.858s.054-.624.062-.684.04-.369.072-.684c.066-.642.141-1.275.255-2.146.117-.9.3-2.139.346-2.321.015-.06.039-.219.057-.349s.054-.33.078-.445.066-.321.09-.461c.159-.833.382-1.85.432-1.971.015-.035.063-.178.111-.318A5.561,5.561,0,0,1,3.5,4.8,6.072,6.072,0,0,1,5.927,3.549c.018,0,.159-.039.315-.077s.394-.1.526-.133c.477-.121,1.322-.3,1.817-.391.141-.026.363-.07.495-.1s.337-.063.452-.079.324-.054.465-.08c.67-.121,2.263-.334,3.335-.445.254-.026.6-.061.766-.08.658-.069,1.591-.149,2.447-.2.739-.048,1.344-.086,1.892-.115.9-.1,1.828-.183,2.755-.245.06,0,.527-.034,1.044-.067s1.3-.087,1.743-.118c1.583-.107,4.379-.267,6.022-.345.468-.022,1.2-.062,1.642-.084S32.759.937,33.137.922,34.211.875,34.68.852C36.9.746,42.175.558,45.729.46c.846-.023,1.991-.054,2.538-.07,2.18-.062,5.276-.132,8.112-.18C62.51.1,65.855.059,70.414.028,78-.025,90.222,0,96.843.081c3.424.043,9.615.143,11.845.2.657.013,1.732.039,2.389.053s1.642.042,2.189.059,1.672.047,2.489.07c2.936.082,4.378.124,4.678.14.169.012.974.042,1.792.07,4.07.146,10.322.432,12.243.563l1.343.082c1.583.092,2.32.138,2.688.168q.795.058,1.593.113c1.08.074,2.074.16,3,.259,1.032.056,2.349.139,2.891.188l.721.06c.2.02.5.048.661.067s.5.054.751.08c.886.092,1.322.14,1.412.159.051.012.294.048.541.079,1.228.166,3.115.49,3.694.639.135.031.27.063.405.092.478.105.7.157.812.191.159.043.32.086.48.127a6.09,6.09,0,0,1,2.3,1.09,6.171,6.171,0,0,1,1.087,1.2c.1.165.2.315.21.334a8.573,8.573,0,0,1,.484,1.144c.021.07.048.156.063.191a8.906,8.906,0,0,1,.216.89c.033.156.087.413.12.572.234,1.128.507,2.785.655,3.973.033.261.067.516.075.56.021.1.118.937.2,1.7.033.315.066.607.075.651s.037.331.061.636.051.614.06.684.042.506.075.97.072,1.026.09,1.255.042.721.061,1.1.044.906.06,1.176c.135,2.384.135,8.45,0,10.761-.018.26-.048.906-.075,1.431s-.057,1.074-.075,1.224-.042.5-.06.795-.045.651-.063.81-.047.544-.072.858-.058.658-.075.764-.051.4-.075.651c-.048.515-.156,1.491-.181,1.637-.008.051-.042.3-.075.54-.15,1.113-.315,2.2-.343,2.273-.009.026-.036.175-.06.334-.1.62-.36,1.933-.5,2.489a7.187,7.187,0,0,1-.357,1.072,1.77,1.77,0,0,0-.072.168,2.208,2.208,0,0,1-.153.311,1.278,1.278,0,0,0-.1.2,1.1,1.1,0,0,1-.114.181c-.06.086-.132.194-.159.238a6.148,6.148,0,0,1-.655.744,3.337,3.337,0,0,1-.556.448.855.855,0,0,0-.132.1,8.139,8.139,0,0,1-1.132.566l-.3.111c-.081.039-.531.159-1.051.283-.231.057-.468.117-.525.133-.138.038-1.009.222-1.668.35-.6.117-1.652.286-2.418.39-.207.029-.523.073-.706.1-.64.095-2.529.289-3.815.394l-.754.059c-.857.116-1.852.24-2.293.281q-.5.047-1,.1c-.268.034-1.762.14-3.483.25-.767.05-1.553.1-1.742.118-.458.033-3.345.2-5.525.308-1.991.1-5.475.253-8.013.345-.687.026-1.733.064-2.339.09-2.12.084-8.383.255-12.642.348-3.324.07-4.1.084-6.221.112-1.234.017-2.957.04-3.833.056-3.494.058-10.307.086-17.133.086S67.139,54.139,63.6,54.081Z" transform="translate(4.779 5.576)" fill="#0E295B"/>
        <path id="Caminho_1465" data-name="Caminho 1465" d="M6.48,0H1.431V-18.225H6.48ZM9.153,0V-14.175h4.239l.27,1.647a4.848,4.848,0,0,1,4.077-2,4.381,4.381,0,0,1,3.469,1.5,5.836,5.836,0,0,1,1.31,3.983V0h-4.86V-8.262q0-2.268-1.809-2.268a1.648,1.648,0,0,0-1.35.594,2.577,2.577,0,0,0-.486,1.674V0ZM24.921,0V-14.175h4.86V0Zm2.43-15.5a2.615,2.615,0,0,1-1.89-.729,2.443,2.443,0,0,1-.756-1.836,2.443,2.443,0,0,1,.756-1.836,2.649,2.649,0,0,1,1.917-.729,2.615,2.615,0,0,1,1.89.729,2.443,2.443,0,0,1,.756,1.836,2.443,2.443,0,0,1-.756,1.836A2.649,2.649,0,0,1,27.351-15.5ZM39.2.351a8.312,8.312,0,0,1-3.983-.9,6.332,6.332,0,0,1-2.605-2.565A8,8,0,0,1,31.7-7.047a7.657,7.657,0,0,1,.972-3.915,6.871,6.871,0,0,1,2.7-2.619,8.2,8.2,0,0,1,4-.945,6.732,6.732,0,0,1,3.537.864V-9.8a4.966,4.966,0,0,0-2.889-.837,3.32,3.32,0,0,0-2.5.931,3.584,3.584,0,0,0-.9,2.606A3.61,3.61,0,0,0,37.53-4.5a3.278,3.278,0,0,0,2.484.958A4.794,4.794,0,0,0,43.038-4.4V-.567A7.027,7.027,0,0,1,39.2.351ZM45.279,0V-14.175h4.86V0Zm2.43-15.5a2.615,2.615,0,0,1-1.89-.729,2.443,2.443,0,0,1-.756-1.836,2.443,2.443,0,0,1,.756-1.836,2.649,2.649,0,0,1,1.917-.729,2.615,2.615,0,0,1,1.89.729,2.443,2.443,0,0,1,.756,1.836,2.443,2.443,0,0,1-.756,1.836A2.649,2.649,0,0,1,47.709-15.5ZM56.619.351A4.836,4.836,0,0,1,53.271-.783,3.856,3.856,0,0,1,52-3.807a4.263,4.263,0,0,1,1.85-3.672A8.769,8.769,0,0,1,59.022-8.8q.54,0,1.188.054-.27-2.106-2.889-2.106a7.449,7.449,0,0,0-4,1.215V-13.2a8.445,8.445,0,0,1,4.86-1.323,6.748,6.748,0,0,1,4.847,1.634,6.165,6.165,0,0,1,1.714,4.685V0H60.8l-.243-1.431A4.51,4.51,0,0,1,56.619.351ZM60.237-6.1a8.863,8.863,0,0,0-.918-.054,3.791,3.791,0,0,0-2.025.459,1.45,1.45,0,0,0-.729,1.3,1.543,1.543,0,0,0,.446,1.161,1.652,1.652,0,0,0,1.2.432,1.86,1.86,0,0,0,1.444-.648,2.265,2.265,0,0,0,.58-1.566ZM67.149,0V-14.175h4.239l.351,2a3.9,3.9,0,0,1,1.31-1.661,3.239,3.239,0,0,1,1.93-.607,2.563,2.563,0,0,1,1.053.216v4.482a2.369,2.369,0,0,0-1.161-.243,2.725,2.725,0,0,0-2.092.823,3.171,3.171,0,0,0-.77,2.254V0Z" transform="translate(32.415 40.5)" fill="#fff"/>
      </g>
    </g>
    <path id="Polígono_25" data-name="Polígono 25" d="M12.645,2.983a3,3,0,0,1,4.709,0l8.809,11.159A3,3,0,0,1,23.809,19H6.191a3,3,0,0,1-2.355-4.859Z" transform="translate(280 769) rotate(90)" fill="#fff"/>
  </g>
</svg>
