<svg xmlns="http://www.w3.org/2000/svg" xmlns:xlink="http://www.w3.org/1999/xlink" width="404.061" height="70.122" viewBox="0 0 404.061 70.122">
  <defs>
    <clipPath id="clip-path">
      <rect id="Ret창ngulo_1304" data-name="Ret창ngulo 1304" width="145.446" height="67.993" fill="none"/>
    </clipPath>
  </defs>
  <g id="Grupo_1600" data-name="Grupo 1600" transform="translate(-456.969 -577.071)">
    <g id="Layer_1" transform="translate(456.969 577.071)">
      <g id="Grupo_1533" data-name="Grupo 1533">
        <g id="Grupo_1532" data-name="Grupo 1532" transform="translate(0 0.239)">
          <g id="Grupo_1530" data-name="Grupo 1530">
            <path id="Caminho_787" data-name="Caminho 787" d="M135.22,51.389a68.823,68.823,0,0,1,10.288.675,5.588,5.588,0,0,1,4.991,4.3A85.49,85.49,0,0,1,153.593,74.4c.014.206.038.479.048.685h9.934c-.072-9.618-1.063-18.7-2.424-24.413a7.836,7.836,0,0,0-6.533-6.533,91.167,91.167,0,0,0-15.787-2.131c-.024,0-1.921-.1-1.959-.1l-1.662,9.484Z" transform="translate(-94.555 -41.68)" fill="#fff"/>
            <path id="Caminho_788" data-name="Caminho 788" d="M60.36,78.483h0c-.024-.235-.038-.455-.048-.685a85.468,85.468,0,0,1,.354-18.282,5.583,5.583,0,0,1,4.3-4.991A81.357,81.357,0,0,1,83,51.44c1.494-.11,2.96-.2,4.354-.259l1.691-9.69c-1.37-.038-2.764-.062-4.21-.062-10.082,0-19.307.857-25.563,2.409a7.831,7.831,0,0,0-6.533,6.533c-1.418,5.982-2.409,15.5-2.409,25.587,0,1.432.062,4.258.062,4.258h0l9.972-1.739Z" transform="translate(-50.33 -41.43)" fill="#fff"/>
            <path id="Caminho_789" data-name="Caminho 789" d="M81.555,144.935a69.179,69.179,0,0,1-12.932-.623,5.588,5.588,0,0,1-4.991-4.3,74.157,74.157,0,0,1-2.653-13.766L50.81,128.037A110.511,110.511,0,0,0,53,145.72a7.836,7.836,0,0,0,6.533,6.533c5.494,1.37,13.373,2.2,22.037,2.376l-.014-9.69h0Z" transform="translate(-50.58 -85.624)" fill="#fff"/>
            <g id="Grupo_1528" data-name="Grupo 1528" transform="translate(34.174 49.928)">
              <path id="Caminho_790" data-name="Caminho 790" d="M126.249,165.526l.014-13.287h-3.889l-.014,13.287Zm3.377-10.231v5.69c0,3.228,1.691,4.847,4.684,4.847a9.4,9.4,0,0,0,2.409-.259V162.6a6.066,6.066,0,0,1-1.384.148c-1.25,0-1.825-.613-1.81-2.021V155.3H136.9v-3.022h-3.377V148.25l-3.889.685v3.329h-1.945v3.022l1.935.014Zm13.1,10.576a4.089,4.089,0,0,0,3.487-1.715l.048,1.384H149.9v-7.807c0-3.793-2.117-5.81-5.91-5.81a14.181,14.181,0,0,0-5.125.891v3.118a12.819,12.819,0,0,1,4.5-.944c1.787,0,2.788.819,2.788,2.251-.307-.024-.819-.048-1.308-.048-4.1,0-6.682,1.691-6.682,4.574.014,2.51,1.772,4.1,4.565,4.1Zm2.5-6.265c.307,0,.8.024.977.048v1.054a2.234,2.234,0,0,1-2.313,2.376c-1.2,0-1.945-.536-1.945-1.614,0-1.221,1.173-1.858,3.281-1.858ZM156.3,165.88a4.114,4.114,0,0,0,3.587-1.763l.048,1.432h3.731l.014-13.287H159.8v7.831c0,1.614-.8,2.63-2.1,2.63s-1.969-.867-1.969-2.486v-7.989h-3.889v8.626c0,3.061,1.748,5.005,4.478,5.005Zm4.9-15.4V147.1l-6.471,1.15v2.227Z" transform="translate(-122.034 -146.415)" fill="#fff"/>
              <path id="Caminho_791" data-name="Caminho 791" d="M123.964,150.124a2.184,2.184,0,0,0,2.313-2.227,2.3,2.3,0,1,0-2.309,2.227Z" transform="translate(-121.68 -145.67)" fill="#fff"/>
            </g>
            <g id="Grupo_1529" data-name="Grupo 1529" transform="translate(15.452 36.972)">
              <path id="Caminho_792" data-name="Caminho 792" d="M118.368,124.59a2.347,2.347,0,0,0-2.021.977l-.024-.8H114.23v7.4h2.189v-4.354c0-.891.441-1.47,1.173-1.47s1.1.489,1.1,1.384v4.454h2.189v-4.809a2.5,2.5,0,0,0-2.519-2.788Z" transform="translate(-99.075 -121.731)" fill="#fff"/>
              <path id="Caminho_793" data-name="Caminho 793" d="M99.775,132.571a2.316,2.316,0,0,0,2.007-.977l.024.8H103.9l.014-7.4h-2.189v4.354c0,.891-.441,1.47-1.173,1.47s-1.1-.489-1.1-1.384V124.97H97.26v4.809c.014,1.715.977,2.788,2.519,2.788Z" transform="translate(-90.234 -121.929)" fill="#fff"/>
              <path id="Caminho_794" data-name="Caminho 794" d="M84.779,130.05H82.59v-9.57h6.169v1.849H84.784v2.213H88.05v1.849H84.793v3.659h-.014Z" transform="translate(-82.59 -119.589)" fill="#fff"/>
              <path id="Caminho_795" data-name="Caminho 795" d="M133.741,129.528a2.81,2.81,0,0,1-1.6-.465,3.033,3.033,0,0,1-1.078-1.332,5.732,5.732,0,0,1,.014-4.133,3.193,3.193,0,0,1,1.087-1.36,2.7,2.7,0,0,1,1.614-.479,2.432,2.432,0,0,1,1.921.833V119.13h2.179v10.207h-1.983l-.024-.891a2.173,2.173,0,0,1-.867.8,2.649,2.649,0,0,1-1.26.292Zm.565-1.739a1.188,1.188,0,0,0,1.054-.565,2.706,2.706,0,0,0,.378-1.566,2.85,2.85,0,0,0-.378-1.59,1.265,1.265,0,0,0-2.107,0,2.736,2.736,0,0,0-.378,1.566,2.85,2.85,0,0,0,.378,1.59A1.236,1.236,0,0,0,134.306,127.79Z" transform="translate(-107.646 -118.886)" fill="#fff"/>
              <path id="Caminho_796" data-name="Caminho 796" d="M167.429,132.373a4.154,4.154,0,0,1-2.007-.465,3.141,3.141,0,0,1-1.308-1.346,4.41,4.41,0,0,1-.465-2.069,4.053,4.053,0,0,1,.489-2.045,3.524,3.524,0,0,1,1.346-1.37,3.968,3.968,0,0,1,2.007-.489,4.34,4.34,0,0,1,1,.125,2.42,2.42,0,0,1,.771.33v1.739a2.439,2.439,0,0,0-1.5-.455,1.786,1.786,0,0,0-1.408.565,2.2,2.2,0,0,0-.5,1.566,2.244,2.244,0,0,0,.527,1.581,1.785,1.785,0,0,0,1.408.589,2.514,2.514,0,0,0,1.581-.479v1.724a2.766,2.766,0,0,1-.833.369,4.086,4.086,0,0,1-1.1.134Zm-.905-.321h1.2l-.268.929a1.692,1.692,0,0,1,1.078.441,1.241,1.241,0,0,1,.4.929,1.385,1.385,0,0,1-.575,1.173,2.715,2.715,0,0,1-1.638.417,4.214,4.214,0,0,1-.929-.125v-1.078a1.971,1.971,0,0,0,.4.072,3.3,3.3,0,0,0,.345.024c.551,0,.833-.172.833-.527,0-.316-.292-.479-.867-.479h-.441l.465-1.787Z" transform="translate(-124.825 -121.731)" fill="#fff"/>
              <path id="Caminho_797" data-name="Caminho 797" d="M183.167,120.785a1.514,1.514,0,0,1-.781-.2c-.23-.134-.426-.259-.613-.378a.971.971,0,0,0-.5-.2c-.268,0-.4.206-.4.623v.11H179.56v-.11a2.4,2.4,0,0,1,.4-1.5,1.371,1.371,0,0,1,1.164-.512,1.478,1.478,0,0,1,.781.2c.216.134.426.259.613.378a.892.892,0,0,0,.489.2c.268,0,.4-.206.4-.623v-.11h1.332v.11a2.4,2.4,0,0,1-.4,1.5A1.414,1.414,0,0,1,183.167,120.785Z" transform="translate(-133.114 -118.62)" fill="#fff"/>
              <path id="Caminho_798" data-name="Caminho 798" d="M197.065,132.394a3.737,3.737,0,0,1-1.921-.479,3.2,3.2,0,0,1-1.26-1.346,4.472,4.472,0,0,1-.455-2.045,4.362,4.362,0,0,1,.455-2.055,3.269,3.269,0,0,1,1.274-1.36,4.071,4.071,0,0,1,3.832,0,3.194,3.194,0,0,1,1.26,1.346,4.472,4.472,0,0,1,.455,2.045,4.363,4.363,0,0,1-.455,2.055,3.33,3.33,0,0,1-1.26,1.36,3.784,3.784,0,0,1-1.921.479Zm0-1.739a1.188,1.188,0,0,0,1.054-.565,2.706,2.706,0,0,0,.378-1.566,2.85,2.85,0,0,0-.378-1.59,1.265,1.265,0,0,0-2.107,0,2.736,2.736,0,0,0-.378,1.566,2.85,2.85,0,0,0,.378,1.59A1.2,1.2,0,0,0,197.065,130.655Z" transform="translate(-140.341 -121.751)" fill="#fff"/>
              <path id="Caminho_799" data-name="Caminho 799" d="M180.682,124.62a7.915,7.915,0,0,0-2.874.5v1.739a7.165,7.165,0,0,1,2.534-.527c1,0,1.566.455,1.566,1.26-.172-.014-.465-.024-.733-.024-2.3,0-3.755.944-3.755,2.543a2.28,2.28,0,0,0,2.558,2.289,2.315,2.315,0,0,0,1.959-.953l.024.771h2.045v-4.344a2.961,2.961,0,0,0-3.314-3.257Zm1.236,4.9a1.254,1.254,0,0,1-1.3,1.322c-.675,0-1.087-.307-1.087-.905,0-.685.661-1.039,1.834-1.039.172,0,.441.014.551.024Z" transform="translate(-131.999 -121.746)" fill="#fff"/>
              <path id="Caminho_800" data-name="Caminho 800" d="M150.922,124.62a7.915,7.915,0,0,0-2.874.5v1.739a7.165,7.165,0,0,1,2.534-.527c1,0,1.566.455,1.566,1.26-.172-.014-.465-.024-.733-.024-2.3,0-3.755.944-3.755,2.543a2.28,2.28,0,0,0,2.558,2.289,2.315,2.315,0,0,0,1.959-.953l.024.771h2.045v-4.344a2.961,2.961,0,0,0-3.314-3.257Zm1.236,4.9a1.254,1.254,0,0,1-1.3,1.322c-.675,0-1.087-.307-1.087-.905,0-.685.661-1.039,1.834-1.039.172,0,.441.014.551.024Z" transform="translate(-116.493 -121.746)" fill="#fff"/>
            </g>
          </g>
          <g id="Grupo_1531" data-name="Grupo 1531" transform="translate(123.061 29.275)">
            <path id="Caminho_801" data-name="Caminho 801" d="M318.564,122.034h-11.3v-17.1h11.05v3.3h-7.17v3.5h5.906v3.3H311.14v3.726h7.424v3.3Z" transform="translate(-307.26 -103.79)" fill="#fff"/>
            <path id="Caminho_802" data-name="Caminho 802" d="M339.341,126.22a10.93,10.93,0,0,1-2.357-.254,7.3,7.3,0,0,1-2-.733v-3.018a7,7,0,0,0,1.887.809,7.819,7.819,0,0,0,2.064.278q2.026,0,2.026-1.241a.971.971,0,0,0-.517-.838,8.184,8.184,0,0,0-2.016-.733q-3.5-.991-3.5-4a3.588,3.588,0,0,1,1.533-3.017,6.683,6.683,0,0,1,4.09-1.14,8.772,8.772,0,0,1,1.863.2,5.668,5.668,0,0,1,1.557.556v2.965a7.027,7.027,0,0,0-3.319-.809c-1.3,0-1.949.378-1.949,1.14a.9.9,0,0,0,.484.786,8.409,8.409,0,0,0,1.925.709,5.734,5.734,0,0,1,2.84,1.533,3.776,3.776,0,0,1,.886,2.6,3.676,3.676,0,0,1-1.47,3.065,6.412,6.412,0,0,1-4.028,1.14Z" transform="translate(-321.677 -107.646)" fill="#fff"/>
            <path id="Caminho_803" data-name="Caminho 803" d="M365.641,126.215a7.125,7.125,0,0,1-3.549-.838,5.735,5.735,0,0,1-2.318-2.395,7.761,7.761,0,0,1-.824-3.688,7.371,7.371,0,0,1,.862-3.65,6.2,6.2,0,0,1,2.395-2.448,7.038,7.038,0,0,1,3.559-.877,6.839,6.839,0,0,1,1.772.23,4.31,4.31,0,0,1,1.37.584v3.118a4.333,4.333,0,0,0-2.663-.809,3.209,3.209,0,0,0-2.5,1,4.773,4.773,0,0,0,.024,5.614,3.167,3.167,0,0,0,2.5,1.039,4.362,4.362,0,0,0,2.788-.862v3.089a4.512,4.512,0,0,1-1.47.647,7.734,7.734,0,0,1-1.949.239Z" transform="translate(-334.192 -107.64)" fill="#fff"/>
            <path id="Caminho_804" data-name="Caminho 804" d="M389.567,126.225a6.582,6.582,0,0,1-3.4-.848,5.771,5.771,0,0,1-2.242-2.409,7.941,7.941,0,0,1-.8-3.659,8.03,8.03,0,0,1,.8-3.674,5.805,5.805,0,0,1,2.256-2.433,6.516,6.516,0,0,1,3.382-.862,6.631,6.631,0,0,1,3.4.848A5.772,5.772,0,0,1,395.2,115.6a7.941,7.941,0,0,1,.8,3.659,8.03,8.03,0,0,1-.8,3.674,5.835,5.835,0,0,1-2.242,2.433A6.5,6.5,0,0,1,389.567,126.225Zm0-3.118a2.13,2.13,0,0,0,1.863-1,5.006,5.006,0,0,0,.671-2.8,5.18,5.18,0,0,0-.671-2.84,2.226,2.226,0,0,0-3.726-.014,4.967,4.967,0,0,0-.671,2.8,5.18,5.18,0,0,0,.671,2.84A2.116,2.116,0,0,0,389.567,123.107Z" transform="translate(-346.791 -107.651)" fill="#fff"/>
            <path id="Caminho_805" data-name="Caminho 805" d="M414.18,120.794V102.55h3.851v18.244Z" transform="translate(-362.969 -102.55)" fill="#fff"/>
            <path id="Caminho_806" data-name="Caminho 806" d="M430.735,126.22a4.558,4.558,0,0,1-3.142-1.054,3.576,3.576,0,0,1-1.193-2.826,4.081,4.081,0,0,1,1.748-3.511,8.358,8.358,0,0,1,4.943-1.255c.187,0,.374,0,.556.014s.374.019.556.038c-.168-1.485-1.126-2.232-2.864-2.232a6.31,6.31,0,0,0-3.75,1.193v-3.018a7.308,7.308,0,0,1,4.383-1.241,5.963,5.963,0,0,1,4.359,1.494,5.728,5.728,0,0,1,1.518,4.282v7.778h-3.142l-.2-1.394a3.885,3.885,0,0,1-1.585,1.269,5.258,5.258,0,0,1-2.194.455Zm3.5-6.212c-.254-.014-.575-.024-.963-.024a4.787,4.787,0,0,0-2.395.493,1.552,1.552,0,0,0-.848,1.408,1.576,1.576,0,0,0,.508,1.241,1.936,1.936,0,0,0,1.341.455,2.223,2.223,0,0,0,1.672-.709,2.425,2.425,0,0,0,.685-1.748Z" transform="translate(-369.336 -107.646)" fill="#fff"/>
          </g>
        </g>
        <rect id="Ret창ngulo_860" data-name="Ret창ngulo 860" width="1.035" height="69.589" transform="translate(99.012)" fill="#fff"/>
      </g>
    </g>
    <g id="Grupo_1583" data-name="Grupo 1583" transform="translate(715.585 579.2)">
      <g id="Grupo_1582" data-name="Grupo 1582" clip-path="url(#clip-path)">
        <path id="Caminho_1569" data-name="Caminho 1569" d="M184.386,2.564A2.564,2.564,0,1,1,181.822,0a2.564,2.564,0,0,1,2.564,2.564" transform="translate(-147.825)" fill="#fff"/>
        <path id="Caminho_1570" data-name="Caminho 1570" d="M184.386,361.081a2.564,2.564,0,1,1-2.564-2.564,2.564,2.564,0,0,1,2.564,2.564" transform="translate(-147.825 -295.652)" fill="#fff"/>
        <path id="Caminho_1571" data-name="Caminho 1571" d="M361.081,184.386a2.564,2.564,0,1,1,2.564-2.564,2.564,2.564,0,0,1-2.564,2.564" transform="translate(-295.652 -147.825)" fill="#fff"/>
        <path id="Caminho_1572" data-name="Caminho 1572" d="M2.564,184.386a2.564,2.564,0,1,1,2.564-2.564,2.564,2.564,0,0,1-2.564,2.564" transform="translate(0 -147.825)" fill="#fff"/>
        <path id="Caminho_1573" data-name="Caminho 1573" d="M15.225,248.049a2.564,2.564,0,1,1-1.388,3.35,2.564,2.564,0,0,1,1.388-3.35" transform="translate(-11.249 -204.393)" fill="#fff"/>
        <path id="Caminho_1574" data-name="Caminho 1574" d="M346.451,110.851a2.564,2.564,0,1,1-1.388,3.35,2.564,2.564,0,0,1,1.388-3.35" transform="translate(-284.395 -91.252)" fill="#fff"/>
        <path id="Caminho_1575" data-name="Caminho 1575" d="M115.589,15.225a2.564,2.564,0,1,1-3.35-1.388,2.564,2.564,0,0,1,3.35,1.388" transform="translate(-91.252 -11.249)" fill="#fff"/>
        <path id="Caminho_1576" data-name="Caminho 1576" d="M252.787,346.451a2.564,2.564,0,1,1-3.35-1.388,2.564,2.564,0,0,1,3.35,1.388" transform="translate(-204.393 -284.395)" fill="#fff"/>
        <path id="Caminho_1577" data-name="Caminho 1577" d="M310.389,56.88a2.564,2.564,0,1,1,0-3.626,2.564,2.564,0,0,1,0,3.626" transform="translate(-252.354 -43.297)" fill="#fff"/>
        <path id="Caminho_1578" data-name="Caminho 1578" d="M56.88,310.389a2.564,2.564,0,1,1,0-3.626,2.564,2.564,0,0,1,0,3.626" transform="translate(-43.297 -252.354)" fill="#fff"/>
        <path id="Caminho_1579" data-name="Caminho 1579" d="M306.763,310.389a2.564,2.564,0,1,1,3.626,0,2.564,2.564,0,0,1-3.626,0" transform="translate(-252.354 -252.354)" fill="#fff"/>
        <path id="Caminho_1580" data-name="Caminho 1580" d="M53.254,56.88a2.564,2.564,0,1,1,3.626,0,2.564,2.564,0,0,1-3.626,0" transform="translate(-43.297 -43.297)" fill="#fff"/>
        <path id="Caminho_1581" data-name="Caminho 1581" d="M252.787,17.187a2.564,2.564,0,1,1-1.388-3.35,2.564,2.564,0,0,1,1.388,3.35" transform="translate(-204.393 -11.249)" fill="#fff"/>
        <path id="Caminho_1582" data-name="Caminho 1582" d="M115.589,348.413a2.564,2.564,0,1,1-1.388-3.35,2.564,2.564,0,0,1,1.388,3.35" transform="translate(-91.252 -284.395)" fill="#fff"/>
        <path id="Caminho_1583" data-name="Caminho 1583" d="M346.451,252.787a2.564,2.564,0,1,1,3.35-1.388,2.564,2.564,0,0,1-3.35,1.388" transform="translate(-284.395 -204.393)" fill="#fff"/>
        <path id="Caminho_1584" data-name="Caminho 1584" d="M15.225,115.589a2.564,2.564,0,1,1,3.35-1.388,2.564,2.564,0,0,1-3.35,1.388" transform="translate(-11.249 -91.252)" fill="#fff"/>
        <path id="Caminho_1585" data-name="Caminho 1585" d="M213.76,53.308a1.926,1.926,0,1,1-1.5-2.273,1.926,1.926,0,0,1,1.5,2.273" transform="translate(-173.134 -42.053)" fill="#fff"/>
        <path id="Caminho_1586" data-name="Caminho 1586" d="M159.654,317.109a1.926,1.926,0,1,1-1.5-2.273,1.926,1.926,0,0,1,1.5,2.273" transform="translate(-128.515 -259.597)" fill="#fff"/>
        <path id="Caminho_1587" data-name="Caminho 1587" d="M316.334,213.76a1.926,1.926,0,1,1,2.273-1.5,1.926,1.926,0,0,1-2.273,1.5" transform="translate(-259.596 -173.134)" fill="#fff"/>
        <path id="Caminho_1588" data-name="Caminho 1588" d="M52.533,159.654a1.926,1.926,0,1,1,2.273-1.5,1.926,1.926,0,0,1-2.273,1.5" transform="translate(-42.052 -128.515)" fill="#fff"/>
        <path id="Caminho_1589" data-name="Caminho 1589" d="M52.243,208.413a1.926,1.926,0,1,1-1.527,2.256,1.926,1.926,0,0,1,1.527-2.256" transform="translate(-41.795 -171.839)" fill="#fff"/>
        <path id="Caminho_1590" data-name="Caminho 1590" d="M316.669,157.448a1.926,1.926,0,1,1-1.527,2.256,1.926,1.926,0,0,1,1.527-2.256" transform="translate(-259.854 -129.81)" fill="#fff"/>
        <path id="Caminho_1591" data-name="Caminho 1591" d="M161.23,52.243a1.926,1.926,0,1,1-2.255-1.527,1.926,1.926,0,0,1,2.255,1.527" transform="translate(-129.81 -41.795)" fill="#fff"/>
        <path id="Caminho_1592" data-name="Caminho 1592" d="M212.195,316.669a1.926,1.926,0,1,1-2.256-1.527,1.926,1.926,0,0,1,2.256,1.527" transform="translate(-171.839 -259.854)" fill="#fff"/>
        <path id="Caminho_1593" data-name="Caminho 1593" d="M298.279,112.291a1.926,1.926,0,1,1,.547-2.668,1.926,1.926,0,0,1-.547,2.668" transform="translate(-243.514 -89.687)" fill="#fff"/>
        <path id="Caminho_1594" data-name="Caminho 1594" d="M73.484,260.568a1.926,1.926,0,1,1,.547-2.668,1.926,1.926,0,0,1-.547,2.668" transform="translate(-58.136 -211.964)" fill="#fff"/>
        <path id="Caminho_1595" data-name="Caminho 1595" d="M257.352,298.279a1.926,1.926,0,1,1,2.668.547,1.926,1.926,0,0,1-2.668-.547" transform="translate(-211.963 -243.514)" fill="#fff"/>
        <path id="Caminho_1596" data-name="Caminho 1596" d="M109.075,73.484a1.926,1.926,0,1,1,2.668.547,1.926,1.926,0,0,1-2.668-.547" transform="translate(-89.686 -58.136)" fill="#fff"/>
        <path id="Caminho_1597" data-name="Caminho 1597" d="M261.887,74.394a1.926,1.926,0,1,1-.515-2.674,1.926,1.926,0,0,1,.515,2.674" transform="translate(-213.062 -58.871)" fill="#fff"/>
        <path id="Caminho_1598" data-name="Caminho 1598" d="M110.947,297.409a1.926,1.926,0,1,1-.515-2.674,1.926,1.926,0,0,1,.515,2.674" transform="translate(-88.589 -242.78)" fill="#fff"/>
        <path id="Caminho_1599" data-name="Caminho 1599" d="M295.25,261.887a1.926,1.926,0,1,1,2.674-.515,1.926,1.926,0,0,1-2.674.515" transform="translate(-242.78 -213.062)" fill="#fff"/>
        <path id="Caminho_1600" data-name="Caminho 1600" d="M72.235,110.947a1.926,1.926,0,1,1,2.674-.515,1.926,1.926,0,0,1-2.674.515" transform="translate(-58.871 -88.589)" fill="#fff"/>
        <path id="Caminho_1601" data-name="Caminho 1601" d="M188.925,94.038a1.338,1.338,0,1,1-1.338-1.338,1.338,1.338,0,0,1,1.338,1.338" transform="translate(-153.59 -76.445)" fill="#fff"/>
        <path id="Caminho_1602" data-name="Caminho 1602" d="M188.925,281.137a1.338,1.338,0,1,1-1.338-1.338,1.338,1.338,0,0,1,1.338,1.338" transform="translate(-153.59 -230.737)" fill="#fff"/>
        <path id="Caminho_1603" data-name="Caminho 1603" d="M281.137,188.925a1.338,1.338,0,1,1,1.338-1.338,1.338,1.338,0,0,1-1.338,1.338" transform="translate(-230.737 -153.59)" fill="#fff"/>
        <path id="Caminho_1604" data-name="Caminho 1604" d="M94.038,188.925a1.338,1.338,0,1,1,1.338-1.338,1.338,1.338,0,0,1-1.338,1.338" transform="translate(-76.445 -153.59)" fill="#fff"/>
        <path id="Caminho_1605" data-name="Caminho 1605" d="M100.645,222.149a1.338,1.338,0,1,1-.724,1.748,1.338,1.338,0,0,1,.724-1.748" transform="translate(-82.316 -183.111)" fill="#fff"/>
        <path id="Caminho_1606" data-name="Caminho 1606" d="M273.5,150.549a1.338,1.338,0,1,1-.724,1.748,1.338,1.338,0,0,1,.724-1.748" transform="translate(-224.862 -124.066)" fill="#fff"/>
        <path id="Caminho_1607" data-name="Caminho 1607" d="M153.021,100.645a1.338,1.338,0,1,1-1.748-.724,1.338,1.338,0,0,1,1.748.724" transform="translate(-124.066 -82.316)" fill="#fff"/>
        <path id="Caminho_1608" data-name="Caminho 1608" d="M224.621,273.5a1.338,1.338,0,1,1-1.748-.724,1.338,1.338,0,0,1,1.748.724" transform="translate(-183.111 -224.862)" fill="#fff"/>
        <path id="Caminho_1609" data-name="Caminho 1609" d="M254.683,122.384a1.338,1.338,0,1,1,0-1.892,1.338,1.338,0,0,1,0,1.892" transform="translate(-208.141 -99.041)" fill="#fff"/>
        <path id="Caminho_1610" data-name="Caminho 1610" d="M122.384,254.683a1.338,1.338,0,1,1,0-1.892,1.338,1.338,0,0,1,0,1.892" transform="translate(-99.041 -208.141)" fill="#fff"/>
        <path id="Caminho_1611" data-name="Caminho 1611" d="M252.79,254.683a1.338,1.338,0,1,1,1.892,0,1.338,1.338,0,0,1-1.892,0" transform="translate(-208.14 -208.141)" fill="#fff"/>
        <path id="Caminho_1612" data-name="Caminho 1612" d="M120.491,122.384a1.338,1.338,0,1,1,1.892,0,1.338,1.338,0,0,1-1.892,0" transform="translate(-99.04 -99.041)" fill="#fff"/>
        <path id="Caminho_1613" data-name="Caminho 1613" d="M224.621,101.669a1.338,1.338,0,1,1-.724-1.748,1.338,1.338,0,0,1,.724,1.748" transform="translate(-183.111 -82.315)" fill="#fff"/>
        <path id="Caminho_1614" data-name="Caminho 1614" d="M153.021,274.526a1.338,1.338,0,1,1-.724-1.748,1.338,1.338,0,0,1,.724,1.748" transform="translate(-124.066 -224.862)" fill="#fff"/>
        <path id="Caminho_1615" data-name="Caminho 1615" d="M273.5,224.621a1.338,1.338,0,1,1,1.748-.724,1.338,1.338,0,0,1-1.748.724" transform="translate(-224.862 -183.111)" fill="#fff"/>
        <path id="Caminho_1616" data-name="Caminho 1616" d="M100.645,153.021a1.338,1.338,0,1,1,1.748-.724,1.338,1.338,0,0,1-1.748.724" transform="translate(-82.316 -124.066)" fill="#fff"/>
        <path id="Caminho_1617" data-name="Caminho 1617" d="M442.228,154.334l-.084,1.9a5.125,5.125,0,0,1,4.986-3.53,5.626,5.626,0,0,1,2.689.672l-.364.7a4.778,4.778,0,0,0-2.325-.588,4.931,4.931,0,0,0-4.846,4.9v8.264h-.868V152.821h.812Z" transform="translate(-364.014 -125.932)" fill="#fff"/>
        <path id="Caminho_1618" data-name="Caminho 1618" d="M503.88,120.279h.84v7.479L504.552,130c.756-2.773,3.67-4.09,6.219-4.09a7.131,7.131,0,0,1-.056,14.259,6.435,6.435,0,0,1-6.163-4.006l.168,1.989v1.765h-.84Zm.812,12.578c0,3.362,1.821,6.5,5.995,6.5A5.984,5.984,0,0,0,516.878,133a5.905,5.905,0,0,0-6.079-6.275,5.792,5.792,0,0,0-6.107,6.135" transform="translate(-415.525 -99.188)" fill="#fff"/>
        <path id="Caminho_1619" data-name="Caminho 1619" d="M605.527,152.67,605.5,155.3a4.765,4.765,0,0,1,4.706-2.914c2.213,0,4.65.981,5.406,3.67a5.242,5.242,0,0,1,5.239-3.67,5.515,5.515,0,0,1,5.743,5.6v8.4h-.84v-8.4a4.6,4.6,0,0,0-4.874-4.79,4.655,4.655,0,0,0-4.846,4.875v8.32h-.84v-8.32a4.707,4.707,0,0,0-4.986-4.875,4.647,4.647,0,0,0-4.678,4.875v8.32h-.841V152.67Z" transform="translate(-498.656 -125.669)" fill="#fff"/>
        <path id="Caminho_1620" data-name="Caminho 1620" d="M763.544,164.632l.168-1.989a6.435,6.435,0,0,1-6.163,3.978,6.834,6.834,0,0,1-7-7.144,6.76,6.76,0,0,1,6.947-7.087c2.549,0,5.463,1.317,6.219,4.09l-.168-2.241v-1.6h.841V166.4h-.841Zm-12.158-5.155a6.023,6.023,0,0,0,6.191,6.331c4.174,0,5.995-3.109,5.995-6.471a5.792,5.792,0,0,0-6.107-6.135,5.906,5.906,0,0,0-6.079,6.275" transform="translate(-618.939 -125.669)" fill="#fff"/>
      </g>
    </g>
  </g>
</svg>
